<?xml version="1.0" standalone="no"?>
<!DOCTYPE svg PUBLIC "-//W3C//DTD SVG 20010904//EN"
 "http://www.w3.org/TR/2001/REC-SVG-20010904/DTD/svg10.dtd">
<svg version="1.0" xmlns="http://www.w3.org/2000/svg"
 width="500.000000pt" height="500.000000pt" viewBox="0 0 500.000000 500.000000"
 preserveAspectRatio="xMidYMid meet">
<metadata>
Created by potrace 1.14, written by Peter Selinger 2001-2017
</metadata>
<g transform="translate(0.000000,500.000000) scale(0.100000,-0.100000)"
fill="#000000" stroke="none">
<path d="M2085 4870 l-20 -9 20 0 c11 0 29 4 40 9 l20 9 -20 0 c-11 0 -29 -4
-40 -9z"/>
<path d="M2625 4834 l-30 -15 40 5 c22 3 51 6 65 6 20 0 22 2 10 10 -21 13
-49 11 -85 -6z"/>
<path d="M1781 4816 c-9 -11 -6 -12 14 -8 14 2 22 8 19 13 -8 13 -20 11 -33
-5z"/>
<path d="M2876 4801 c-5 -8 9 -11 46 -11 49 0 138 -12 191 -25 12 -2 2 5 -23
17 -52 25 -202 38 -214 19z"/>
<path d="M2088 4783 c7 -3 16 -2 19 1 4 3 -2 6 -13 5 -11 0 -14 -3 -6 -6z"/>
<path d="M2010 4765 c-31 -9 -37 -13 -20 -14 14 0 39 6 55 14 38 17 24 17 -35
0z"/>
<path d="M2565 4729 c-183 -57 -362 -137 -308 -138 18 -1 69 15 115 36 46 20
144 56 218 79 74 24 128 43 120 44 -8 0 -1 7 15 15 59 27 -3 13 -160 -36z"/>
<path d="M2260 4754 c-30 -8 -61 -15 -67 -16 -7 -1 -13 -6 -13 -11 0 -6 -3 -7
-7 -4 -3 4 -12 2 -18 -3 -17 -14 -107 -40 -117 -34 -4 3 -8 0 -8 -6 0 -7 -6
-5 -15 4 -24 23 -80 30 -133 15 -112 -30 -397 -167 -417 -199 -3 -5 27 6 67
25 55 27 84 35 123 34 l50 -1 -47 -8 c-150 -26 -391 -238 -497 -438 -29 -53
-70 -149 -91 -212 -22 -63 -40 -104 -40 -90 0 34 46 203 66 241 8 17 11 28 5
25 -13 -8 -65 -146 -81 -215 -7 -31 -23 -64 -36 -76 -12 -11 -24 -34 -27 -50
-4 -26 -5 -24 -6 10 -1 22 -6 92 -12 155 -22 239 0 388 76 514 40 68 38 73 -5
11 -77 -111 -108 -306 -89 -548 6 -76 8 -141 5 -144 -9 -9 -26 46 -26 85 0 24
-3 32 -9 24 -5 -9 -12 20 -18 75 -6 51 -19 107 -32 133 -12 25 -19 36 -15 25
17 -56 33 -159 37 -235 6 -100 -4 -74 -23 60 -12 78 -16 90 -22 65 -5 -21 -6
-15 -3 20 3 30 1 45 -4 37 -6 -10 -10 -7 -15 13 -12 47 -17 20 -6 -31 6 -27
19 -107 29 -179 21 -141 54 -245 124 -387 24 -49 40 -88 36 -88 -4 0 -11 9
-14 20 -3 11 -11 20 -16 20 -6 0 -6 -8 1 -20 20 -38 2 -20 -23 23 -14 23 -35
53 -47 67 -12 14 -31 44 -42 68 -11 23 -23 40 -26 38 -3 -3 0 -11 5 -18 15
-20 45 -100 34 -94 -5 3 -12 -1 -15 -10 -3 -8 -2 -12 4 -9 6 3 10 2 10 -3 0
-6 7 -13 16 -16 15 -6 15 -4 3 11 -9 10 -9 14 -2 9 7 -4 28 -35 47 -69 19 -34
44 -72 56 -84 11 -12 20 -24 20 -26 0 -1 27 -31 60 -65 34 -34 56 -52 50 -39
-21 42 39 -35 62 -81 24 -46 41 -65 33 -35 -3 10 1 5 9 -12 12 -24 15 -26 16
-10 1 20 2 20 9 0 7 -17 9 -16 15 10 5 21 10 25 16 16 6 -10 12 -6 24 15 l15
29 -6 -32 c-7 -42 10 -43 27 -3 7 17 17 33 22 36 6 4 5 -3 -2 -15 -22 -42 -3
-45 27 -4 31 43 85 93 99 93 5 0 2 -5 -6 -11 -13 -9 -13 -10 0 -6 8 2 14 11
14 20 -1 9 2 15 6 12 5 -3 29 18 54 46 32 36 43 55 37 63 -7 8 -3 20 12 37 12
14 18 19 13 12 -5 -8 -7 -15 -5 -18 3 -2 47 38 99 90 98 96 124 114 74 48 -16
-21 -28 -41 -27 -45 1 -3 -23 -33 -55 -65 -31 -32 -48 -51 -37 -43 19 14 19
14 0 -10 -46 -56 -48 -59 -26 -53 12 3 27 0 34 -6 10 -8 27 2 72 42 33 28 55
46 51 39 -7 -11 -4 -12 11 -4 11 6 25 17 32 25 6 8 37 30 68 48 30 19 72 49
93 67 33 28 39 30 50 17 11 -13 10 -14 -3 -10 -8 4 -18 2 -21 -3 -4 -6 4 -9
16 -7 49 8 101 33 141 71 36 34 38 34 12 5 -23 -26 -25 -31 -9 -23 11 6 26 18
33 26 14 17 36 12 25 -6 -3 -5 8 -2 25 7 17 9 37 13 43 9 6 -4 8 -3 5 2 -3 6
3 16 15 23 11 7 17 8 14 2 -4 -5 -2 -12 3 -15 5 -3 12 1 15 10 3 8 11 12 16 9
6 -4 19 -1 28 6 9 8 7 2 -5 -12 -30 -33 -29 -49 0 -20 15 13 30 19 41 15 11
-4 16 -2 14 7 -2 9 4 13 16 11 12 -2 16 1 10 9 -4 7 -3 10 3 6 6 -4 21 2 33
13 13 11 44 30 69 43 25 12 49 26 53 32 4 5 8 7 8 2 0 -4 13 -1 30 8 16 8 37
15 47 15 10 0 -16 -15 -57 -33 -87 -38 -186 -101 -200 -127 -9 -16 -6 -18 23
-15 17 2 56 8 85 15 29 7 56 9 59 6 4 -3 1 -6 -6 -6 -7 0 -9 -5 -5 -11 4 -8
-1 -9 -17 -4 -17 4 -20 3 -10 -3 7 -5 9 -12 5 -14 -5 -3 -2 -3 6 -1 55 15 154
32 158 28 3 -3 -1 -5 -9 -5 -9 0 -24 -6 -35 -14 -15 -12 -7 -11 38 2 32 9 51
19 43 22 -8 3 36 5 98 6 62 1 94 -1 72 -3 -94 -8 -179 -25 -204 -38 -25 -14
-23 -14 34 -10 41 3 54 2 40 -4 -16 -8 -11 -10 25 -11 36 -1 41 -3 25 -11 -14
-6 -5 -7 30 -4 38 4 45 3 28 -5 -29 -12 -30 -24 -2 -15 15 5 19 4 15 -4 -5 -7
1 -11 14 -11 12 0 19 4 16 9 -4 5 4 7 15 4 20 -6 19 -7 -7 -18 l-29 -12 35 -7
c82 -18 110 -29 100 -41 -7 -8 4 -16 38 -28 26 -10 60 -29 75 -43 15 -13 27
-21 27 -17 0 4 4 3 8 -2 4 -6 18 -16 32 -23 23 -11 22 -11 -15 -6 l-40 6 45
-31 c25 -17 50 -31 57 -31 6 0 19 -7 27 -16 9 -8 16 -13 16 -9 0 3 6 0 14 -7
10 -10 11 -15 2 -21 -8 -6 -8 -10 0 -13 6 -3 20 -12 30 -20 15 -12 11 -11 -16
2 -46 22 -47 23 -30 35 13 9 13 10 1 7 -31 -9 -20 -28 34 -62 34 -22 53 -41
49 -48 -4 -7 -3 -8 5 -4 11 7 91 -39 91 -52 0 -2 -10 3 -22 12 -37 26 -58 37
-58 31 0 -10 129 -132 135 -128 3 2 3 0 0 -4 -3 -3 2 -15 12 -25 9 -10 13 -18
9 -18 -3 0 6 -14 21 -31 16 -17 27 -34 27 -37 -1 -4 7 -13 17 -20 11 -8 16
-19 12 -29 -4 -11 -3 -14 5 -9 7 4 15 1 18 -8 3 -9 11 -13 17 -9 5 3 7 1 3 -5
-8 -13 14 -63 25 -56 5 3 6 -2 3 -10 -3 -8 -1 -24 6 -35 6 -12 8 -21 6 -21 -3
0 -13 14 -22 32 -9 18 -23 38 -30 45 -7 8 -10 21 -7 30 4 11 3 14 -5 9 -7 -4
-15 0 -18 9 -5 13 -9 13 -22 3 -13 -11 -14 -11 -8 0 4 7 2 19 -4 27 -7 8 -10
24 -7 36 5 17 3 18 -11 7 -12 -10 -14 -10 -8 0 4 7 2 12 -4 12 -6 0 -8 5 -5
10 4 6 1 9 -6 8 -7 -2 -18 7 -24 20 -14 26 -88 97 -125 120 -14 8 -5 -3 19
-25 24 -21 45 -46 47 -55 3 -26 38 -68 51 -63 6 2 14 -3 17 -12 5 -11 2 -14
-10 -9 -9 3 -2 -7 16 -24 17 -16 29 -34 25 -40 -3 -5 -2 -10 3 -10 4 0 16 -17
25 -37 13 -28 13 -33 3 -18 -9 11 -34 39 -58 62 -44 44 -69 49 -43 9 9 -13 18
-34 20 -46 l4 -23 -24 23 c-14 13 -25 21 -25 17 0 -3 -19 13 -42 36 -22 23
-33 32 -23 20 26 -32 -1 -31 -39 2 -16 13 -32 22 -37 20 -4 -3 -23 4 -41 15
-44 26 -81 44 -90 42 -5 -1 -8 2 -8 7 0 5 -11 12 -24 15 -13 3 -32 9 -43 13
-17 7 -17 6 1 -22 l19 -30 -24 20 c-13 11 -41 29 -61 39 -21 10 -35 23 -31 29
3 6 1 7 -6 3 -9 -6 -9 -12 1 -24 7 -9 0 -7 -16 6 -15 12 -32 20 -36 17 -4 -3
-13 2 -20 10 -14 16 -34 10 -24 -7 4 -7 2 -8 -5 -4 -6 4 -8 12 -5 18 4 7 2 8
-4 4 -15 -9 -54 12 -47 24 3 6 0 7 -8 4 -20 -7 -83 32 -65 40 7 3 3 3 -10 0
-14 -3 -24 0 -28 9 -3 9 -25 18 -52 22 -26 3 -56 9 -67 12 l-20 6 20 8 20 8
-20 1 c-11 1 -45 3 -75 4 -117 6 -117 6 -95 17 15 7 8 8 -25 4 -31 -4 -40 -2
-30 5 16 10 -93 5 -110 -5 -5 -3 -12 0 -16 6 -5 8 -3 9 6 4 9 -5 11 -4 6 3 -5
9 -17 7 -44 -7 -20 -10 -43 -16 -50 -14 -7 3 -19 -1 -27 -7 -12 -10 -15 -10
-15 0 0 9 -6 8 -19 -4 -10 -10 -25 -16 -33 -15 -17 3 -88 -32 -88 -43 0 -5 -4
-7 -8 -4 -8 5 -102 -85 -102 -98 0 -4 -12 -25 -27 -49 -15 -23 -28 -47 -29
-54 -4 -25 -60 -92 -89 -107 l-30 -15 30 -1 c28 -1 28 -1 10 -12 -11 -7 -27
-18 -35 -27 -13 -13 -11 -14 15 -8 27 7 28 6 12 -7 -13 -10 -15 -15 -5 -19 8
-3 4 -9 -12 -15 -14 -6 -18 -11 -10 -12 12 0 12 -2 2 -9 -10 -6 -7 -10 13 -15
15 -4 33 -12 40 -19 10 -10 7 -14 -14 -24 l-26 -11 25 -1 c17 -1 21 -4 12 -10
-10 -6 -5 -11 17 -21 17 -7 29 -15 27 -19 -3 -4 7 -16 20 -26 14 -11 41 -35
61 -52 20 -18 44 -33 55 -33 11 0 17 -4 14 -8 -2 -4 7 -13 22 -19 15 -7 54
-24 87 -39 73 -32 197 -60 291 -64 138 -5 200 -5 227 3 18 5 26 4 23 -2 -6
-10 17 -15 104 -25 24 -3 46 -10 48 -15 2 -6 25 -11 50 -12 36 0 42 -3 27 -9
-17 -7 -14 -9 15 -10 36 -2 117 -28 90 -29 -13 -1 -13 -2 0 -12 15 -11 9 -10
-65 6 -11 3 -6 -2 10 -10 17 -8 38 -14 48 -15 10 0 16 -4 13 -9 -3 -5 -16 -7
-29 -4 -12 2 1 -7 28 -21 28 -14 46 -25 41 -25 -6 -1 -1 -8 10 -17 18 -14 18
-15 -6 -8 -126 35 -167 43 -115 20 l30 -13 -34 -8 -34 -7 47 -29 c25 -16 46
-33 46 -37 0 -10 -110 25 -124 38 -6 6 -14 3 -21 -7 -10 -14 -14 -14 -43 1
-19 10 -33 12 -37 6 -4 -6 -18 -4 -37 6 -37 19 -35 -1 2 -25 21 -14 23 -14 16
-1 -4 8 1 4 13 -10 l20 -25 -3 30 c-3 25 -2 27 9 12 6 -9 14 -14 17 -11 4 3 5
-3 4 -13 0 -10 6 -18 14 -18 8 0 21 -7 28 -15 8 -8 11 -9 7 -2 -10 19 8 14 46
-14 l34 -26 -35 7 c-44 10 -100 36 -100 47 0 5 -4 6 -10 3 -5 -3 -28 4 -50 15
-23 12 -56 22 -73 24 -18 2 -46 10 -64 19 -45 24 -50 21 -22 -10 l24 -26 -32
23 c-20 14 -40 21 -56 18 -17 -3 -24 -1 -21 7 3 8 -7 11 -30 10 -26 0 -32 2
-25 11 6 8 4 14 -7 18 -22 8 -32 7 -17 -2 7 -4 9 -13 5 -19 -6 -9 -21 -6 -56
11 -27 13 -43 25 -36 28 7 2 -5 4 -26 5 -31 0 -35 -1 -19 -8 19 -9 -53 -5
-145 6 l-35 5 33 -10 c45 -15 40 -24 -10 -17 -37 5 -39 5 -18 -5 l25 -10 -29
-10 c-21 -8 -25 -13 -15 -19 25 -16 -125 8 -178 28 -10 4 -14 2 -10 -4 4 -6
23 -14 42 -17 20 -4 33 -11 29 -17 -3 -6 5 -8 23 -4 27 5 28 5 3 -5 -19 -9
-33 -7 -63 6 -30 14 -40 15 -50 5 -9 -10 -8 -11 6 -5 14 5 16 2 10 -12 -6 -16
-4 -17 9 -6 13 11 16 10 14 -5 -1 -13 6 -18 22 -17 16 0 19 -3 12 -10 -7 -7
-20 -5 -41 8 -16 10 -37 15 -45 12 -8 -3 -13 -2 -10 3 3 4 -6 13 -20 20 l-25
11 18 -25 c10 -13 31 -29 46 -36 15 -6 26 -14 23 -16 -3 -3 -34 11 -70 30 -55
29 -67 32 -77 20 -10 -12 -17 -9 -41 14 -19 18 -27 22 -23 10 4 -9 11 -17 16
-17 4 0 6 -6 3 -14 -5 -14 -34 -11 -32 2 0 4 0 14 -1 22 -1 13 -2 13 -11 0 -7
-11 0 -24 33 -54 23 -21 36 -35 28 -31 -10 6 -13 4 -9 -7 4 -9 0 -15 -8 -15
-8 0 -14 4 -14 9 0 5 -6 6 -12 2 -9 -6 -9 -3 1 9 11 14 9 20 -16 41 -27 23
-45 75 -21 60 8 -5 9 -1 4 12 -4 10 -9 24 -10 29 -1 6 -5 16 -9 22 -5 7 -4 13
0 13 5 0 15 -6 23 -13 12 -10 12 -9 2 4 -6 9 -9 18 -6 21 3 3 -7 15 -22 27
-15 11 -24 21 -20 21 4 0 -1 12 -11 27 -10 16 -25 42 -33 58 -8 17 -22 41 -31
55 -9 14 -14 30 -12 36 2 6 -4 17 -14 25 -17 13 -17 13 -3 -6 11 -15 7 -14
-13 4 -15 14 -30 21 -34 18 -9 -9 -36 31 -28 42 3 6 -3 8 -14 6 -11 -2 -22 3
-25 11 -3 8 -11 14 -19 14 -7 0 -18 5 -25 12 -6 6 -22 13 -34 15 -13 2 -33 15
-45 31 -22 26 -23 26 -23 5 0 -12 -5 -25 -10 -28 -6 -3 -10 1 -10 9 0 10 -6
13 -15 10 -10 -4 -15 0 -16 12 -1 14 -3 13 -9 -6 -4 -14 -8 -19 -9 -12 -1 7
-6 10 -11 7 -5 -3 -10 -1 -10 6 0 8 -4 8 -15 -1 -13 -11 -15 -6 -15 34 0 47 7
55 29 34 10 -11 11 -10 6 5 -4 9 -4 17 -1 17 10 0 49 -23 76 -45 19 -15 21
-16 11 -3 -12 16 -11 18 5 18 18 1 18 1 -1 12 -11 7 -29 13 -40 15 -11 1 -27
3 -35 4 -8 1 -27 1 -42 1 -27 -2 -27 -3 -22 -54 4 -39 3 -49 -5 -38 -6 8 -11
29 -11 45 -1 28 -2 28 -12 10 -7 -11 -18 -26 -25 -33 -7 -7 -13 -17 -13 -21 0
-4 -9 -7 -21 -8 -14 -1 -19 3 -15 13 9 23 -8 16 -39 -16 -23 -24 -26 -33 -16
-43 6 -6 17 -12 24 -12 7 -1 11 -7 9 -15 -3 -11 0 -11 14 1 9 8 19 13 21 11 3
-2 8 0 11 4 4 4 2 4 -5 0 -6 -3 -14 -2 -18 4 -4 6 -11 7 -17 4 -7 -5 -8 -2 -4
5 5 7 14 10 21 7 7 -2 18 1 25 7 10 9 11 9 6 0 -8 -14 6 -18 18 -6 9 9 46 11
46 2 0 -4 9 -5 20 -2 12 3 20 0 20 -6 0 -7 -4 -9 -10 -6 -6 3 -7 -1 -4 -10 6
-14 8 -14 19 2 11 15 17 15 40 5 14 -7 31 -9 37 -6 6 4 6 -1 -1 -13 -6 -11 -7
-24 -3 -28 4 -5 2 -5 -5 -1 -6 3 -15 2 -18 -4 -4 -6 -3 -10 2 -9 30 5 33 -3
12 -33 -13 -17 -18 -28 -11 -25 11 7 24 -28 36 -95 5 -29 -8 -46 -20 -27 -4 7
-3 9 3 6 5 -3 10 0 10 7 0 7 -6 13 -13 13 -7 0 -10 -9 -8 -21 8 -34 13 -82 7
-68 -2 6 -11 12 -19 12 -9 0 -13 -4 -10 -9 9 -13 -20 -21 -32 -9 -13 13 -32 2
-32 -18 0 -8 -5 -14 -11 -14 -5 0 -7 6 -4 13 4 6 0 4 -8 -5 -8 -10 -17 -15
-20 -11 -4 3 -7 -2 -7 -12 0 -10 -3 -15 -7 -12 -3 4 -12 2 -20 -5 -11 -8 -12
-7 -7 5 5 14 1 15 -23 8 -15 -5 -38 -4 -51 0 -15 6 -21 5 -17 -1 9 -15 -11
-12 -24 3 -6 8 -21 13 -33 12 -13 -1 -29 5 -36 14 -8 9 -11 10 -7 4 4 -8 0
-13 -9 -13 -10 0 -13 7 -11 21 3 16 1 18 -9 10 -9 -8 -13 -7 -13 4 0 8 4 15 8
15 5 0 7 16 5 35 -1 19 1 35 5 35 4 0 5 10 2 23 -5 21 -5 22 10 2 14 -18 15
-18 12 12 -1 20 2 30 9 27 7 -2 12 4 13 15 1 11 -5 22 -14 25 -11 4 -14 2 -9
-9 3 -9 0 -15 -9 -15 -8 0 -15 -6 -15 -13 0 -8 -11 -27 -24 -42 -13 -15 -22
-34 -19 -42 3 -7 0 -13 -7 -13 -6 0 -8 -4 -5 -10 7 -11 -30 -102 -56 -141 -11
-15 -21 -54 -24 -94 -6 -62 -4 -73 24 -129 33 -68 79 -120 125 -143 17 -8 42
-27 55 -41 13 -15 20 -20 15 -12 -7 13 -5 13 8 2 9 -7 18 -22 21 -32 7 -26
-17 -26 -66 -1 -21 11 -36 14 -34 8 2 -6 31 -25 66 -43 102 -52 257 -64 476
-38 52 7 59 -3 9 -12 -16 -3 -48 -9 -72 -15 -52 -11 -234 -14 -323 -4 -46 5
-69 4 -73 -4 -4 -6 -13 -8 -19 -5 -7 4 -8 3 -4 -2 5 -5 13 -9 18 -9 5 0 15
-11 22 -24 7 -13 17 -24 22 -24 6 -1 21 -11 34 -23 14 -13 28 -21 32 -19 4 3
12 -2 19 -10 7 -8 16 -12 21 -9 5 3 9 0 9 -5 0 -6 7 -11 15 -11 8 0 15 4 15
10 0 5 9 2 20 -7 21 -18 39 -24 88 -25 25 -1 32 -6 33 -22 1 -18 2 -18 6 -3 6
21 42 20 60 -3 11 -13 12 -13 13 3 0 20 16 23 23 5 4 -10 6 -10 6 -1 1 7 7 10
15 7 7 -3 21 2 30 11 15 15 16 15 16 0 0 -9 5 -13 10 -10 6 3 10 -1 10 -9 0
-18 16 -21 25 -6 11 18 22 10 38 -28 9 -20 15 -28 12 -17 -13 66 -15 89 -6 69
13 -30 27 -36 41 -19 11 14 15 13 27 -5 8 -11 16 -39 19 -62 2 -24 6 -48 8
-53 2 -6 -4 -11 -14 -11 -10 0 -17 3 -15 6 2 4 -5 19 -17 36 -11 16 -18 21
-14 12 3 -10 1 -20 -4 -23 -5 -3 -11 3 -14 12 -3 10 -3 -3 -1 -29 6 -60 -1
-61 -16 -3 -13 51 -14 52 -23 10 -4 -20 -3 -25 3 -16 7 10 9 7 8 -13 -2 -22
-4 -24 -13 -11 -15 20 -25 8 -19 -24 5 -25 5 -26 -6 -4 -18 34 -32 28 -25 -10
5 -25 2 -35 -13 -44 -17 -11 -23 -8 -44 17 -14 16 -28 26 -32 22 -5 -4 -5 1
-2 11 4 11 3 16 -3 12 -12 -7 -9 -67 3 -76 8 -6 18 -59 11 -59 -2 0 -13 18
-24 40 -24 47 -29 50 -25 13 l3 -27 -24 27 c-17 20 -24 24 -24 12 0 -9 -5 -13
-10 -10 -6 4 -7 11 -4 17 4 6 3 8 -2 5 -11 -7 -11 -47 0 -66 17 -27 -3 -19
-39 16 -24 24 -34 30 -26 16 17 -34 13 -41 -9 -13 -25 32 -25 10 0 -42 l20
-41 -45 48 c-43 47 -45 48 -53 26 -8 -22 -9 -21 -33 16 -14 21 -31 49 -37 63
-10 22 -11 22 -6 3 3 -13 7 -41 9 -63 3 -37 12 -52 63 -110 7 -8 19 -24 27
-35 19 -29 27 -14 10 19 -23 44 -18 42 21 -10 47 -61 74 -90 74 -79 0 4 10 0
22 -11 13 -12 18 -13 13 -4 -8 13 -6 13 8 1 9 -7 14 -18 10 -24 -3 -6 -1 -7 5
-3 6 4 24 0 40 -8 16 -8 32 -12 36 -9 3 4 6 1 6 -5 0 -6 14 -13 30 -17 23 -5
38 -19 60 -58 16 -29 38 -63 50 -77 11 -14 33 -45 51 -68 31 -45 50 -52 29
-11 -12 22 -25 139 -16 139 3 0 14 -20 26 -44 31 -61 120 -177 131 -171 5 4 6
0 3 -8 -3 -9 14 -35 43 -65 l49 -51 50 30 c27 16 55 27 62 24 7 -3 24 2 37 11
15 9 25 11 29 5 4 -6 13 -8 21 -5 8 4 12 11 9 16 -4 6 3 5 15 -1 12 -7 26 -9
31 -6 6 3 10 3 10 0 0 -3 -37 -24 -82 -45 -91 -42 -83 -55 8 -15 31 14 60 22
65 19 5 -3 9 -1 9 4 0 5 12 14 28 21 l27 12 -27 -23 c-14 -13 -63 -37 -108
-53 l-82 -28 23 -19 c24 -20 24 -20 -8 -2 -25 14 -36 15 -45 6 -9 -9 -5 -17
15 -36 14 -13 36 -27 47 -31 11 -4 17 -11 14 -17 -5 -7 -1 -9 9 -5 9 3 33 -1
54 -10 22 -9 84 -18 148 -22 l110 -6 -75 -6 -75 -5 90 -2 c74 -1 94 2 114 17
14 10 31 16 40 13 8 -3 12 -1 8 4 -5 10 134 38 181 37 12 -1 39 -9 58 -18 45
-21 150 -21 261 0 86 17 108 18 78 5 -19 -8 -18 -9 5 -11 62 -5 188 4 220 16
19 8 60 20 90 29 30 8 81 31 114 51 32 19 60 35 63 35 2 0 19 11 37 25 18 14
40 25 49 25 23 0 21 -33 -3 -55 -30 -27 -27 -48 5 -33 14 6 25 16 25 21 0 6 3
8 6 4 13 -13 240 151 311 225 46 48 88 105 159 218 26 41 51 77 54 80 4 3 10
12 14 20 3 8 4 2 1 -15 l-5 -30 29 35 c86 102 179 410 184 606 3 140 19 89 19
-61 0 -86 -5 -131 -26 -210 -38 -144 -111 -288 -186 -366 -33 -34 -60 -65 -60
-69 0 -4 -9 -17 -20 -30 -12 -13 -18 -31 -15 -39 3 -9 3 -12 -1 -8 -4 4 -18
-9 -32 -29 -16 -24 -21 -39 -14 -46 17 -17 32 0 69 76 19 39 32 59 29 44 -4
-16 -5 -28 -3 -28 8 0 57 80 50 80 -5 0 -3 4 2 8 13 9 105 138 105 147 0 4 13
25 28 48 27 40 58 112 66 153 2 11 11 39 19 64 27 82 40 181 35 269 l-5 86 12
-60 13 -60 1 74 c1 84 10 88 20 9 7 -52 7 -53 21 -28 11 19 16 79 21 245 3
121 6 199 7 173 4 -88 19 -49 26 65 3 61 9 130 12 152 5 38 4 39 -10 21 -9
-11 -16 -16 -16 -12 0 5 -7 3 -14 -4 -24 -19 -10 33 24 94 80 142 118 373 91
561 -5 36 -9 -2 -13 -135 -5 -162 -9 -196 -32 -275 -24 -80 -68 -175 -82 -175
-2 0 4 17 15 38 37 72 56 220 56 427 -1 166 -4 201 -24 280 -34 131 -109 309
-166 393 -28 41 -67 101 -89 135 -21 34 -55 82 -75 107 -20 24 -36 48 -36 51
0 4 -4 11 -9 16 -5 5 -6 3 -2 -4 14 -24 -2 -13 -19 13 -11 18 -13 24 -4 18 8
-4 -8 16 -35 45 -51 55 -54 68 -15 52 37 -14 112 -95 153 -166 34 -57 49 -72
74 -75 23 -4 111 -113 167 -209 20 -33 38 -61 40 -61 8 0 -35 101 -71 170 -19
36 -76 112 -128 170 -52 57 -93 106 -91 108 4 4 101 -63 135 -93 14 -12 31
-20 37 -18 7 3 38 -22 70 -54 l56 -58 -46 60 c-34 44 -43 61 -32 63 8 2 15 7
15 12 0 12 -97 81 -190 135 -47 27 -116 69 -155 94 -38 25 -90 55 -115 68 -25
13 -35 22 -22 19 32 -6 27 11 -8 29 -16 9 -30 18 -30 21 0 3 53 -22 118 -56
115 -60 114 -48 -3 27 -68 44 -278 147 -340 167 -71 23 -210 56 -237 56 -22 1
-22 1 -3 12 11 7 52 12 90 12 126 -1 355 -88 496 -189 39 -28 51 -34 29 -15
-47 43 -134 102 -195 133 -27 14 -59 33 -70 41 l-20 16 20 -7 c62 -20 190 -86
237 -122 56 -42 80 -53 58 -26 -13 16 -9 18 25 16 16 -1 11 6 -20 34 -40 37
-186 115 -214 115 -8 0 -43 14 -79 30 -85 41 -213 74 -366 96 -70 10 -120 22
-113 26 7 4 8 8 2 9 -5 0 -1 4 10 9 12 5 -8 7 -55 5 -41 -1 -57 -1 -35 2 22 2
42 8 45 12 5 8 111 0 185 -14 37 -6 38 -6 20 8 -11 8 -47 23 -80 33 -51 16
-93 19 -295 19 -222 0 -283 7 -249 25 8 4 33 11 57 15 23 4 42 11 42 16 0 12
-57 5 -184 -22 -54 -11 -94 -15 -104 -10 -13 7 -13 9 4 14 231 67 308 80 429
74 119 -6 322 -46 458 -92 53 -17 97 -28 97 -24 0 5 7 6 16 2 10 -4 12 -8 5
-12 -6 -4 19 -21 54 -39 87 -42 98 -40 15 3 -39 20 -57 34 -45 35 22 1 18 3
-99 54 -80 35 -226 73 -313 81 -40 4 -70 11 -67 16 3 5 -5 9 -18 10 -23 0 -23
0 2 11 50 20 244 -7 405 -57 11 -3 -2 5 -30 19 -27 13 -45 25 -40 25 21 3 -24
20 -105 41 -73 19 -106 21 -243 18 -87 -1 -160 -5 -162 -8 -2 -3 -23 -4 -47
-1 l-43 5 55 12 c48 10 50 12 20 13 -19 0 -71 -6 -115 -14 -94 -17 -125 -18
-145 -5 -13 8 -12 11 5 24 11 9 35 18 53 22 17 3 32 12 32 19 0 7 20 18 45 25
25 7 45 16 45 21 0 5 15 13 33 18 30 9 31 9 5 10 -89 3 -346 -62 -449 -115
-14 -7 -31 -9 -38 -4 -8 4 -27 4 -43 -1 -50 -14 -65 1 -21 22 41 19 25 19 -49
-1 -52 -13 -67 -36 -18 -27 18 4 34 1 42 -6 7 -8 37 -22 66 -32 58 -21 98 -54
52 -42 -76 19 -113 18 -217 -3 -85 -17 -131 -33 -218 -77 -152 -77 -157 -81
-105 -108 20 -10 35 -12 47 -6 174 91 511 115 698 50 33 -11 52 -14 56 -7 4 6
16 7 29 3 17 -5 21 -4 15 5 -6 10 0 12 26 6 19 -3 36 -11 37 -16 2 -6 9 -7 14
-4 6 4 8 2 5 -3 -4 -6 -24 -14 -44 -18 l-38 -8 65 -21 c60 -20 140 -61 140
-72 0 -3 -19 6 -42 20 -152 89 -588 131 -793 76 -44 -12 -93 -24 -108 -27 -27
-5 -27 -6 -10 -26 l18 -20 -29 19 c-20 12 -31 15 -33 7 -3 -8 -15 -7 -41 4
-56 23 -190 13 -266 -21 -193 -86 -370 -295 -420 -496 -12 -51 -13 -52 -18
-22 -2 18 -1 32 4 32 12 0 10 28 -2 32 -18 6 27 119 76 191 26 37 76 95 113
128 60 56 61 58 11 18 -95 -76 -154 -141 -206 -229 -46 -77 -104 -204 -104
-228 0 -5 -7 -25 -15 -43 -15 -32 -16 -32 -12 -6 2 15 0 27 -4 27 -18 0 -20
49 -5 100 9 30 14 56 11 58 -3 3 -5 3 -5 1 0 -3 -8 -29 -19 -58 l-19 -54 0 53
c0 36 3 48 10 39 6 -9 7 -3 3 18 -9 46 48 161 119 240 78 85 218 189 190 141
-4 -7 -3 -9 1 -5 5 4 10 14 11 22 2 12 -11 8 -49 -12 -100 -55 -207 -174 -272
-302 -35 -70 -75 -247 -76 -341 -1 -92 -16 -59 -18 40 -2 87 -17 112 -27 42
-11 -84 -27 -63 -19 26 20 214 111 418 228 510 23 19 46 41 51 50 15 28 79 92
93 92 7 0 13 3 13 8 1 13 40 58 40 45 0 -6 -6 -18 -12 -25 -7 -8 -29 -32 -48
-53 l-35 -39 31 20 c55 33 94 66 88 75 -3 5 2 6 10 3 13 -5 12 -9 -7 -25 -12
-10 -17 -18 -10 -19 6 0 14 4 18 10 3 5 33 17 66 26 40 11 72 28 92 48 29 30
30 30 13 4 -25 -42 -8 -34 62 27 35 30 67 55 72 55 4 0 25 16 45 36 21 20 48
37 60 38 13 0 21 4 20 7 -4 6 25 33 38 36 4 1 33 18 65 37 32 19 127 58 212
86 85 29 157 54 159 56 10 10 -99 1 -149 -12z m275 -196 c-11 -7 -21 -6 -28 2
-9 8 -8 10 6 5 10 -4 17 -2 17 5 0 6 5 8 11 4 8 -5 6 -10 -6 -16z m-50 -258
c-80 -10 -132 -24 -245 -70 -52 -22 -133 -53 -180 -70 -180 -66 -264 -128
-393 -290 -69 -87 -73 -92 -59 -65 43 82 168 218 246 269 98 64 190 116 205
116 25 0 122 53 111 60 -11 7 127 46 185 53 17 2 66 4 110 4 l80 0 -60 -7z
m-1195 -95 c-34 -49 -39 -54 -36 -28 2 14 53 73 63 73 2 0 -10 -20 -27 -45z
m1070 -1 c-65 -10 -136 -27 -147 -36 -7 -6 -13 -7 -13 -4 0 4 -6 2 -12 -4 -7
-6 -55 -31 -105 -55 -115 -55 -179 -101 -265 -194 -37 -39 -70 -70 -72 -69 -2
2 -13 -5 -24 -15 -21 -19 -37 -11 -22 13 4 7 6 18 4 25 -3 6 30 47 73 92 65
67 94 87 174 126 52 26 142 62 200 81 133 43 135 44 189 43 25 0 34 -1 20 -3z
m-556 -62 c-28 -26 -74 -67 -101 -92 -54 -50 -110 -122 -160 -209 -35 -60 -42
-62 -18 -4 12 29 13 39 3 52 -11 14 -11 14 3 3 14 -10 18 -10 22 2 4 9 1 18
-5 22 -7 5 -8 2 -3 -6 5 -9 4 -11 -4 -6 -8 6 -6 16 8 40 12 18 22 42 24 54 4
28 57 84 73 78 7 -3 18 3 26 12 12 16 11 16 -7 2 -18 -14 -19 -14 -7 2 8 9 19
15 27 12 7 -3 16 0 21 7 5 8 3 10 -6 4 -9 -5 -11 -4 -6 4 4 6 12 9 17 5 6 -3
19 2 30 12 10 9 19 14 19 11 0 -3 19 5 43 18 23 14 44 25 47 25 3 0 -18 -22
-46 -48z m121 10 c-30 -26 -118 -83 -107 -69 14 16 101 77 111 77 3 0 1 -4 -4
-8z m1325 -54 c305 -105 468 -203 635 -385 137 -149 346 -358 370 -371 11 -6
16 -14 12 -18 -10 -10 -95 34 -170 87 -32 23 -95 80 -140 128 -154 162 -217
219 -315 284 -147 98 -171 110 -190 95 -13 -10 -14 -10 -8 0 9 14 -77 57 -94
47 -6 -3 -10 -2 -10 4 0 5 -20 8 -45 6 -25 -1 -48 1 -51 7 -3 5 -15 6 -26 2
-14 -4 -18 -3 -13 5 8 14 -140 13 -235 -2 -62 -9 -82 -11 -158 -15 -19 -1 -31
-6 -27 -12 4 -6 -5 -7 -23 -4 -17 4 -65 -3 -113 -16 -46 -12 -94 -23 -106 -25
-11 -2 -32 -7 -45 -11 -12 -4 -31 -8 -40 -9 -9 -1 -34 -13 -55 -28 -21 -14
-60 -37 -88 -52 -27 -14 -50 -29 -50 -33 0 -3 -8 -7 -17 -7 -34 -3 -31 -15 3
-15 43 0 106 17 115 31 4 7 -1 7 -15 0 -11 -7 -21 -8 -21 -3 0 7 24 23 65 41
6 2 3 -4 -5 -15 -14 -18 -14 -18 2 -5 10 7 15 17 13 22 -8 11 34 32 51 25 8
-3 13 -2 10 3 -3 5 14 16 37 25 49 18 69 21 47 5 -12 -9 -11 -10 5 -4 137 47
380 82 495 70 86 -8 243 -35 250 -42 3 -3 -13 -2 -34 1 -110 20 -190 23 -339
10 -227 -20 -356 -53 -508 -131 l-85 -44 -129 0 c-70 0 -130 3 -133 6 -3 3 15
5 40 5 43 0 58 10 62 42 1 5 33 32 71 61 39 29 101 76 139 105 170 131 365
194 586 189 110 -3 122 -5 280 -59z m-1190 -62 c0 -2 -30 -22 -66 -46 -87 -56
-173 -134 -229 -206 -25 -32 -45 -55 -45 -51 0 15 66 115 99 151 47 50 151
127 162 120 5 -3 9 0 9 6 0 6 5 8 10 5 6 -3 10 -1 10 5 0 6 4 9 8 6 4 -2 14
-1 22 5 17 10 20 11 20 5z m140 -35 c-58 -21 -127 -49 -155 -64 -94 -49 -204
-152 -277 -257 -17 -24 -17 -24 -3 12 10 24 11 39 5 43 -18 11 31 84 98 146
85 80 140 106 259 123 54 8 109 19 123 24 14 6 32 11 40 11 8 0 -32 -17 -90
-38z m543 -58 c-7 -2 -19 -2 -25 0 -7 3 -2 5 12 5 14 0 19 -2 13 -5z m-108
-24 c-33 -10 -64 -18 -70 -18 -15 1 97 38 115 37 8 0 -12 -8 -45 -19z m-1808
-21 c-3 -7 -5 -2 -5 12 0 14 2 19 5 13 2 -7 2 -19 0 -25z m2157 -7 c17 -3 29
-10 28 -16 -2 -5 8 -11 20 -12 13 -1 68 -6 123 -10 99 -7 99 -7 -95 -14 -110
-4 -238 -14 -295 -24 -55 -10 -110 -17 -123 -17 -12 0 -25 -4 -27 -8 -3 -5
-15 -6 -28 -3 -12 3 -19 3 -15 -2 4 -4 67 -8 141 -10 74 -1 140 -6 148 -11 8
-5 34 -14 59 -21 44 -11 43 -11 -20 -5 -36 4 -126 7 -200 7 -137 -1 -244 -21
-322 -61 -16 -8 -28 -12 -28 -9 0 11 143 73 183 80 27 5 35 10 25 16 -7 5 -22
6 -33 4 -11 -3 0 4 24 15 24 11 64 25 87 31 24 6 41 15 38 20 -3 5 10 6 28 3
22 -4 29 -3 19 4 -9 7 1 11 35 17 27 4 53 10 59 13 5 3 26 5 46 3 20 -1 40 2
44 8 7 12 32 12 79 2z m407 -9 c-7 -2 -18 1 -23 6 -8 8 -4 9 13 5 13 -4 18 -8
10 -11z m-2554 -44 c-3 -8 -6 -5 -6 6 -1 11 2 17 5 13 3 -3 4 -12 1 -19z m854
8 c-9 -11 -9 -19 0 -34 12 -20 13 -20 31 2 19 21 19 21 3 -6 -18 -30 -52 -32
-47 -2 3 16 2 16 -14 3 -13 -10 -12 -5 5 19 12 17 25 32 28 32 3 0 0 -6 -6
-14z m356 -102 c-3 -3 -12 -4 -19 -1 -8 3 -5 6 6 6 11 1 17 -2 13 -5z m950
-20 c-3 -3 -12 -4 -19 -1 -8 3 -5 6 6 6 11 1 17 -2 13 -5z m-1347 -24 c-6 -11
-13 -20 -16 -20 -2 0 0 9 6 20 6 11 13 20 16 20 2 0 0 -9 -6 -20z m514 -12
c-3 -5 -10 -6 -15 -3 -5 4 -9 0 -9 -7 -1 -7 -22 -31 -48 -53 -26 -21 -40 -30
-31 -20 9 11 19 28 22 38 4 10 11 16 15 13 4 -3 16 5 25 18 16 21 53 34 41 14z
m629 -35 c-7 -2 -19 -2 -25 0 -7 3 -2 5 12 5 14 0 19 -2 13 -5z m30 -20 c-7
-2 -19 -2 -25 0 -7 3 -2 5 12 5 14 0 19 -2 13 -5z m-76 -9 c-3 -3 -12 -4 -19
-1 -8 3 -5 6 6 6 11 1 17 -2 13 -5z m-50 -10 c-3 -3 -12 -4 -19 -1 -8 3 -5 6
6 6 11 1 17 -2 13 -5z m-708 -62 c-13 -15 -50 -50 -84 -77 -51 -42 -55 -44
-30 -15 32 38 122 120 131 120 3 0 -5 -12 -17 -28z m888 -48 c-3 -3 -12 -4
-19 -1 -8 3 -5 6 6 6 11 1 17 -2 13 -5z m190 -80 c-3 -3 -12 -4 -19 -1 -8 3
-5 6 6 6 11 1 17 -2 13 -5z m-1417 -28 c0 -2 -8 -10 -17 -17 -16 -13 -17 -12
-4 4 13 16 21 21 21 13z m-599 -163 c13 -16 12 -17 -3 -4 -10 7 -18 15 -18 17
0 8 8 3 21 -13z m2933 1 c3 -8 2 -12 -4 -9 -6 3 -10 10 -10 16 0 14 7 11 14
-7z m76 -107 c39 -95 113 -209 167 -257 55 -48 50 -65 -7 -25 -85 59 -193 206
-174 237 4 6 3 8 -3 5 -6 -4 -15 6 -22 21 -11 25 -10 26 4 8 19 -25 19 -10 0
24 -9 18 -10 29 -3 38 8 10 7 11 -7 6 -13 -5 -16 -4 -11 5 14 22 29 6 56 -62z
m327 -34 c24 -46 43 -60 43 -32 0 6 -4 7 -10 4 -5 -3 -7 0 -4 8 3 8 -2 31 -10
52 -18 41 -21 59 -6 34 52 -89 129 -418 137 -589 5 -120 4 -131 -32 -280 -23
-98 -53 -190 -81 -252 -30 -66 -44 -111 -44 -139 0 -53 -35 -181 -63 -231 -11
-21 -22 -36 -23 -35 -2 2 8 34 21 73 32 91 32 123 0 59 -14 -27 -22 -41 -19
-30 31 94 38 151 38 307 1 121 -2 170 -11 180 -7 6 -13 23 -13 35 0 30 -49
269 -62 303 -6 16 -6 26 1 28 6 2 11 8 11 13 0 6 -4 7 -10 4 -6 -3 -7 1 -4 9
3 9 10 16 14 16 24 0 94 -269 112 -432 7 -60 16 -108 20 -108 4 0 8 -12 9 -27
1 -18 6 -6 16 32 8 37 14 114 15 200 1 209 -29 282 -176 424 -31 29 -56 56
-57 60 -10 81 15 67 110 -62 24 -32 45 -56 49 -53 6 6 12 -8 60 -139 23 -63
26 -85 27 -210 0 -77 -3 -162 -7 -190 l-7 -50 14 36 c7 20 16 56 19 80 3 24
13 82 21 129 35 198 11 365 -77 529 -28 53 -56 103 -63 111 -7 8 -40 62 -74
120 -67 116 -43 95 61 -53 90 -127 91 -128 62 -62 -14 33 -27 65 -27 72 0 7
-4 10 -9 7 -7 -5 -12 10 -9 29 0 4 -4 7 -11 7 -6 0 -9 3 -5 6 3 4 0 19 -8 35
-19 37 -19 60 0 35 18 -23 20 -14 4 17 -21 44 30 -26 58 -80z m-1957 -7 c0 -2
-7 -7 -16 -10 -8 -3 -12 -2 -9 4 6 10 25 14 25 6z m37 -52 c-3 -3 -12 -4 -19
-1 -8 3 -5 6 6 6 11 1 17 -2 13 -5z m20 -20 c-3 -3 -12 -4 -19 -1 -8 3 -5 6 6
6 11 1 17 -2 13 -5z m-125 -21 c-6 -2 -10 -9 -7 -14 4 -5 -2 -6 -11 -2 -13 5
-15 3 -9 -7 6 -9 4 -11 -5 -5 -10 6 -9 11 5 22 11 7 24 13 29 12 6 0 5 -3 -2
-6z m178 -33 c14 -4 -19 -6 -72 -6 -54 1 -98 2 -98 4 0 1 10 7 23 11 22 9 99
4 147 -9z m40 -30 c24 -8 24 -8 -5 -8 -16 0 -52 3 -80 8 l-50 7 55 1 c30 0 66
-4 80 -8z m1001 -107 c13 -16 12 -17 -3 -4 -17 13 -22 21 -14 21 2 0 10 -8 17
-17z m-1172 -19 c36 -30 39 -56 10 -92 -19 -24 -30 -28 -120 -37 -55 -6 -102
-8 -105 -6 -11 12 -2 62 19 92 46 69 141 90 196 43z m1909 -19 c-3 -3 -9 2
-12 12 -6 14 -5 15 5 6 7 -7 10 -15 7 -18z m-1588 -74 c30 -23 58 -41 62 -41
33 0 -27 -148 -74 -183 -15 -11 -25 -24 -22 -29 3 -5 2 -7 -3 -6 -4 2 -8 0 -8
-3 0 -27 -156 -104 -232 -114 -112 -15 -136 -16 -145 -7 -6 6 16 13 64 21 102
15 225 47 216 56 -2 2 -41 -5 -88 -15 -47 -11 -116 -18 -155 -18 -52 1 -57 2
-20 5 28 1 82 8 120 14 80 13 94 25 134 109 23 50 26 67 26 171 l0 117 35 -18
c20 -10 60 -37 90 -59z m1624 -11 c3 -14 -3 -7 -13 15 -11 22 -20 45 -20 50 0
15 26 -37 33 -65z m-722 -35 c14 -27 -1 -10 -41 45 l-33 45 32 -35 c17 -19 36
-44 42 -55z m58 5 c6 -11 8 -20 6 -20 -3 0 -10 9 -16 20 -6 11 -8 20 -6 20 3
0 10 -9 16 -20z m-1140 -123 c-35 -67 -98 -124 -157 -142 -18 -5 -23 -2 -23
12 0 15 -2 16 -10 3 -8 -12 -10 -10 -10 8 0 13 4 21 9 17 5 -3 12 -1 15 4 4 5
18 7 32 5 21 -4 25 -2 20 11 -3 9 -1 15 7 14 18 -3 48 12 42 21 -3 5 4 15 15
23 11 7 17 17 14 20 -7 7 21 38 33 36 20 -3 27 2 13 11 -13 9 -13 11 0 20 8 5
11 10 7 10 -5 0 -5 6 0 13 19 29 13 -47 -7 -86z m1190 42 c15 -28 5 -23 -15 7
-9 15 -12 23 -6 20 6 -4 16 -16 21 -27z m-743 -5 c-3 -3 -12 -4 -19 -1 -8 3
-5 6 6 6 11 1 17 -2 13 -5z m-31 -15 c4 -8 0 -9 -15 -4 -13 4 -21 2 -21 -5 0
-6 -5 -8 -11 -4 -8 4 -7 9 2 15 19 12 37 11 45 -2z m-61 -19 c3 -6 -1 -7 -9
-4 -9 3 -16 1 -16 -6 0 -6 -4 -8 -10 -5 -5 3 -10 1 -10 -5 0 -6 -4 -8 -10 -5
-5 3 -10 1 -10 -5 0 -6 -5 -8 -11 -4 -8 4 1 14 22 25 40 21 46 22 54 9z m929
-26 c3 -8 2 -12 -4 -9 -15 9 -12 -7 6 -35 14 -22 12 -22 -10 3 -26 28 -36 54
-16 42 6 -3 10 -1 10 4 0 16 7 13 14 -5z m-1497 -96 c-3 -8 -6 -5 -6 6 -1 11
2 17 5 13 3 -3 4 -12 1 -19z m612 13 c9 -6 -17 -16 -79 -30 -98 -22 -130 -23
-58 -1 24 7 50 15 58 18 8 3 23 4 33 3 9 -1 17 3 17 8 0 13 10 14 29 2z m-710
-47 c14 -12 -19 -1 -35 12 -18 14 -18 14 6 3 14 -6 27 -13 29 -15z m676 -20
c-95 -20 -187 -35 -191 -31 -9 9 111 35 161 35 28 0 41 -2 30 -4z m1495 -80
c6 -49 7 -104 1 -144 -8 -64 -8 -64 -10 45 -1 61 -4 128 -8 150 -3 22 -3 37 1
34 3 -3 11 -41 16 -85z m-1497 29 c-13 -2 -35 -2 -50 0 -16 2 -5 4 22 4 28 0
40 -2 28 -4z m-95 -10 c-10 -2 -28 -2 -40 0 -13 2 -5 4 17 4 22 1 32 -1 23 -4z
m-73 -13 c-3 -5 -11 -10 -16 -10 -6 0 -7 5 -4 10 3 6 11 10 16 10 6 0 7 -4 4
-10z m182 -6 c-3 -3 -12 -4 -19 -1 -8 3 -5 6 6 6 11 1 17 -2 13 -5z m-1642
-14 c-4 -6 -1 -17 5 -25 6 -8 10 -22 8 -32 -2 -11 -9 -3 -20 25 -14 36 -14 42
-2 42 9 0 12 -5 9 -10z m1542 4 c-3 -3 -12 -4 -19 -1 -8 3 -5 6 6 6 11 1 17
-2 13 -5z m-60 -10 c-3 -3 -12 -4 -19 -1 -8 3 -5 6 6 6 11 1 17 -2 13 -5z
m320 -190 c-3 -3 -12 -4 -19 -1 -8 3 -5 6 6 6 11 1 17 -2 13 -5z m-1886 -21
c13 -16 12 -17 -3 -4 -10 7 -18 15 -18 17 0 8 8 3 21 -13z m484 -3 c3 -6 -1
-7 -9 -4 -18 7 -21 14 -7 14 6 0 13 -4 16 -10z m-720 -30 c3 -5 1 -10 -4 -10
-6 0 -11 5 -11 10 0 6 2 10 4 10 3 0 8 -4 11 -10z m89 -21 c3 -3 -5 -5 -19 -5
-13 0 -22 3 -19 7 4 8 30 6 38 -2z m1943 -25 c-3 -3 -12 -4 -19 -1 -8 3 -5 6
6 6 11 1 17 -2 13 -5z m-2117 -50 c34 -54 54 -133 41 -167 -8 -22 -40 -55 -48
-50 -2 2 -16 9 -31 17 -40 20 -61 48 -68 87 l-5 34 33 -38 c26 -29 43 -39 69
-40 32 -2 34 0 37 34 3 40 -27 118 -57 148 -12 12 -16 21 -11 21 6 0 24 -21
40 -46z m3627 4 c-3 -8 -6 -5 -6 6 -1 11 2 17 5 13 3 -3 4 -12 1 -19z m-1607
2 c0 -5 -5 -10 -11 -10 -5 0 -7 5 -4 10 3 6 8 10 11 10 2 0 4 -4 4 -10z
m-1033 -53 c1 1 13 -2 25 -7 13 -5 16 -9 8 -9 -8 0 -35 8 -60 19 -42 19 -44
19 -21 1 l24 -19 -22 -12 c-13 -6 -25 -9 -28 -7 -2 3 5 8 17 12 20 6 21 7 3
21 -25 19 -38 17 -22 -3 11 -13 8 -13 -12 2 -15 11 -24 26 -22 33 4 10 8 10
20 0 12 -10 17 -9 25 6 9 16 12 15 36 -11 14 -15 27 -27 29 -26z m1073 33 c8
-5 11 -10 5 -10 -5 0 -17 5 -25 10 -8 5 -10 10 -5 10 6 0 17 -5 25 -10z m-165
-18 c-3 -3 -11 0 -18 7 -9 10 -8 11 6 5 10 -3 15 -9 12 -12z m89 -35 c6 3 7 2
3 -2 -4 -5 11 -19 35 -32 24 -12 37 -22 30 -23 -15 0 -129 68 -138 82 -3 5 9
0 27 -11 18 -11 37 -17 43 -14z m-1151 -3 c-4 -12 -8 -13 -14 -3 -9 15 -2 32
11 24 5 -3 6 -13 3 -21z m797 -26 c0 -4 10 -5 22 -3 12 3 27 0 35 -6 7 -7 13
-8 13 -4 0 4 7 2 15 -5 8 -7 15 -9 15 -5 0 4 12 0 26 -10 15 -9 23 -12 20 -6
-5 7 -1 9 8 5 9 -3 14 -10 11 -15 -6 -9 35 -3 44 7 3 4 -1 5 -10 2 -9 -4 -16
-1 -16 7 0 11 5 11 19 4 11 -6 26 -8 34 -5 10 4 13 2 8 -7 -6 -9 -5 -9 8 0 8
7 18 10 22 6 6 -6 20 -9 64 -15 6 -1 12 -5 12 -9 0 -5 6 -6 14 -3 8 3 17 1 21
-5 3 -7 0 -8 -9 -5 -27 10 -17 -15 12 -30 34 -19 30 -19 -35 -2 -44 12 -51 12
-46 0 3 -8 9 -11 14 -8 5 3 9 1 9 -5 0 -6 17 -20 38 -31 20 -12 29 -19 20 -16
-10 3 -18 1 -18 -5 0 -5 -13 -3 -30 6 -42 22 -45 19 -15 -16 33 -40 26 -47
-19 -20 -22 14 -37 18 -41 11 -3 -5 -1 -10 4 -10 6 0 11 -4 11 -9 0 -6 -17 -3
-37 5 -37 14 -37 14 -18 -3 11 -10 29 -29 40 -43 11 -14 13 -20 6 -13 -10 9
-18 9 -32 0 -15 -9 -25 -8 -50 7 -28 17 -32 17 -26 3 5 -13 1 -17 -18 -17 -24
0 -24 -1 -7 -18 9 -11 19 -18 22 -16 3 1 6 -6 6 -17 0 -19 -1 -18 -19 3 -10
13 -16 17 -12 11 7 -15 -11 -18 -20 -3 -3 5 -15 15 -27 21 -16 9 -19 8 -12 -3
17 -26 14 -44 -4 -23 -9 11 -16 18 -15 16 2 -2 -2 -10 -9 -18 -9 -11 -7 -15
10 -19 24 -7 38 -34 17 -34 -8 0 -15 4 -15 9 0 8 -60 41 -75 41 -4 0 3 -9 16
-19 13 -11 24 -30 24 -44 1 -23 -1 -24 -20 -14 -11 6 -24 11 -28 12 -5 0 -15
9 -23 19 -8 11 -14 16 -14 12 0 -5 -7 -3 -15 4 -9 8 -15 9 -15 2 0 -6 4 -13
10 -17 5 -3 19 -20 31 -38 l23 -32 -22 19 c-13 12 -22 14 -22 7 0 -7 -6 -9
-12 -6 -7 4 2 -7 21 -24 31 -27 32 -30 11 -26 -27 5 -62 34 -54 46 3 5 -3 6
-12 2 -11 -4 -15 -3 -10 5 3 6 1 14 -5 18 -8 4 -9 3 -5 -4 8 -14 4 -15 -18 -6
-9 3 -13 10 -10 15 3 5 0 9 -5 9 -6 0 -10 3 -10 8 3 16 -2 23 -11 17 -8 -5 -7
-11 0 -20 22 -26 -1 -38 -26 -14 l-23 22 4 -23 c5 -24 35 -63 43 -55 3 2 0 11
-7 18 -11 14 -7 14 54 8 6 -1 -3 -10 -20 -21 -16 -11 -28 -20 -25 -21 50 -8
70 -22 49 -34 -8 -5 -10 -4 -5 3 6 11 -6 16 -26 13 -5 0 -16 6 -25 14 -10 8
-38 32 -63 53 l-44 37 23 -32 c12 -18 20 -33 16 -33 -3 0 0 -10 6 -22 9 -18 3
-15 -24 10 -25 24 -37 30 -42 21 -5 -7 -4 -10 2 -6 12 7 35 -16 52 -53 11 -24
11 -24 -3 -6 -9 11 -16 16 -16 10 -1 -5 -10 2 -20 15 -11 13 -20 20 -20 15 0
-4 -5 -3 -12 4 -9 9 -7 17 8 34 l19 23 -21 -18 c-11 -9 -24 -14 -29 -10 -4 5
-3 -1 3 -13 8 -15 8 -24 -1 -34 -9 -10 -9 -11 1 -6 6 4 12 2 12 -3 0 -19 4
-25 30 -49 14 -12 19 -21 11 -20 -23 5 -80 72 -71 83 6 7 1 23 -10 40 -13 20
-20 24 -20 14 0 -9 7 -22 15 -29 8 -7 12 -17 8 -23 -5 -8 -41 46 -43 65 0 14
36 13 48 -2 9 -10 8 -5 -2 16 -10 21 -12 34 -4 45 8 11 9 10 4 -6 l-6 -20 16
20 c13 16 15 16 11 3 -8 -22 11 -34 26 -18 7 7 8 10 2 7 -6 -3 -10 8 -11 24
-1 15 3 26 7 23 5 -3 9 -14 9 -25 0 -10 5 -19 10 -19 6 0 10 4 10 9 0 5 3 17
7 27 4 10 2 15 -3 11 -5 -3 -10 3 -10 14 0 16 3 15 24 -9 13 -15 21 -22 18
-15 -9 18 -14 73 -6 68 4 -2 13 7 20 20 10 18 17 22 26 14 18 -15 27 6 14 31
-8 15 -8 20 3 20 7 0 17 -3 23 -7 5 -5 6 -4 2 2 -11 12 -10 27 1 21 4 -3 7 6
5 19 -1 14 2 23 7 19 5 -3 6 -10 3 -16 -4 -7 -2 -8 5 -4 6 4 10 15 9 24 -2 12
3 16 16 14 10 -2 15 1 12 7 -7 11 30 35 43 27 5 -3 8 4 7 17 -1 17 4 22 22 21
15 -1 19 2 13 10 -7 8 -1 11 20 11 16 1 29 -2 29 -7z m-1134 -37 c-34 -36 -75
-54 -110 -49 -43 5 -34 23 15 28 25 3 58 15 73 28 41 32 55 27 22 -7z m912
-166 c-3 -3 -9 2 -12 12 -6 14 -5 15 5 6 7 -7 10 -15 7 -18z m2009 -97 c-3 -7
-5 -2 -5 12 0 14 2 19 5 13 2 -7 2 -19 0 -25z m40 -15 c-3 -10 -5 -2 -5 17 0
19 2 27 5 18 2 -10 2 -26 0 -35z m-112 -65 c-20 -59 -65 -152 -89 -183 -9 -11
2 14 23 56 22 42 47 102 57 133 10 31 19 54 22 52 2 -3 -4 -29 -13 -58z m62
-10 c-2 -13 -4 -5 -4 17 -1 22 1 32 4 23 2 -10 2 -28 0 -40z m40 0 c-2 -13 -4
-5 -4 17 -1 22 1 32 4 23 2 -10 2 -28 0 -40z m-2832 23 c3 -5 1 -12 -5 -16 -5
-3 -10 1 -10 9 0 18 6 21 15 7z m591 -73 c9 -18 26 -44 38 -58 11 -14 4 -9
-16 11 -20 20 -40 34 -44 30 -4 -3 -4 2 -1 12 4 9 2 17 -4 17 -6 0 -7 5 -4 10
9 15 13 13 31 -22z m2191 -10 c-3 -7 -5 -2 -5 12 0 14 2 19 5 13 2 -7 2 -19 0
-25z m28 -58 c-10 -44 -20 -78 -22 -76 -3 2 4 40 14 85 9 44 20 78 22 75 2 -2
-4 -40 -14 -84z m-2245 15 c4 3 13 -2 20 -10 10 -12 8 -13 -9 -10 -27 5 -26 1
5 -43 l26 -37 -35 38 c-30 32 -36 35 -47 22 -12 -14 -7 -19 13 -16 5 1 6 -3 2
-9 -10 -16 -23 -3 -46 43 -11 23 -14 34 -6 25 16 -20 32 -25 21 -6 -4 7 -3 8
5 4 9 -6 9 -11 -1 -24 -11 -13 -11 -14 2 -10 8 3 14 14 12 24 -2 10 -4 25 -4
32 -1 6 -5 12 -10 12 -5 0 -6 5 -2 11 4 7 14 -1 26 -20 11 -17 24 -29 28 -26z
m215 35 c10 -11 16 -20 13 -20 -3 0 -13 9 -23 20 -10 11 -16 20 -13 20 3 0 13
-9 23 -20z m-94 -17 c13 -16 12 -17 -3 -4 -10 7 -18 15 -18 17 0 8 8 3 21 -13z
m2064 -101 c-30 -83 -74 -175 -100 -207 -8 -11 4 21 29 70 24 50 55 123 67
163 13 41 25 68 27 62 2 -6 -8 -46 -23 -88z m-2285 74 c0 -3 -4 -8 -10 -11 -5
-3 -10 -1 -10 4 0 6 5 11 10 11 6 0 10 -2 10 -4z m-39 -59 c-10 -9 -11 -8 -5
6 3 10 9 15 12 12 3 -3 0 -11 -7 -18z m-100 -10 c-10 -9 -11 -8 -5 6 3 10 9
15 12 12 3 -3 0 -11 -7 -18z m149 -15 c0 -15 -2 -15 -10 -2 -13 20 -13 33 0
25 6 -3 10 -14 10 -23z m-278 -28 c-9 -7 -19 -10 -22 -7 -3 3 1 8 8 10 6 3 12
12 12 21 0 14 2 15 9 3 7 -10 4 -19 -7 -27z m48 27 c1 9 4 8 11 -4 12 -21 5
-47 -13 -47 -9 0 -9 3 0 12 19 19 14 32 -5 17 -10 -7 -15 -9 -11 -5 4 5 2 16
-5 25 -11 14 -10 14 6 2 14 -11 17 -11 17 0z m119 -31 c11 -24 11 -24 -3 -6
-9 11 -16 24 -16 30 0 12 5 7 19 -24z m-200 -21 c17 -57 7 -60 -12 -5 -9 26
-12 46 -8 46 4 0 13 -18 20 -41z m362 24 c13 -16 12 -17 -3 -4 -17 13 -22 21
-14 21 2 0 10 -8 17 -17z m2256 -5 c-3 -8 -6 -5 -6 6 -1 11 2 17 5 13 3 -3 4
-12 1 -19z m-2557 -18 c6 -11 8 -20 6 -20 -3 0 -10 9 -16 20 -6 11 -8 20 -6
20 3 0 10 -9 16 -20z m-20 -4 c0 -3 -4 -8 -10 -11 -5 -3 -10 -1 -10 4 0 6 5
11 10 11 6 0 10 -2 10 -4z m2533 -105 c-21 -50 -41 -91 -44 -91 -4 0 12 44 35
99 22 54 42 95 44 90 2 -4 -14 -49 -35 -98z m-284 -52 c-8 -5 -11 -9 -6 -9 12
0 -43 -81 -101 -148 -30 -35 -57 -61 -60 -58 -2 3 -30 -15 -61 -39 -54 -43
-135 -80 -151 -70 -4 3 -7 -3 -6 -11 1 -19 -52 -42 -99 -43 -27 0 -25 2 28 31
51 28 120 91 155 144 7 10 4 2 -7 -19 -19 -35 -19 -37 -2 -28 10 6 37 35 61
65 23 31 44 56 46 56 3 0 -5 -18 -17 -41 -11 -23 -16 -38 -10 -34 6 3 11 2 11
-4 0 -5 -21 -28 -47 -51 -27 -23 -39 -37 -27 -31 25 12 59 44 144 136 35 39
56 57 46 42 -10 -16 -16 -31 -13 -33 6 -7 71 83 93 128 9 20 22 35 27 31 5 -3
3 -9 -4 -14z m174 -24 c-3 -9 -8 -14 -10 -11 -3 3 -2 9 2 15 9 16 15 13 8 -4z
m-233 -13 c0 -5 -7 -17 -15 -28 -14 -18 -14 -17 -4 9 12 27 19 34 19 19z m284
-24 c-21 -36 -85 -128 -89 -128 -3 0 16 32 41 70 26 39 49 70 51 70 2 0 1 -6
-3 -12z m-354 -43 c-7 -8 -17 -12 -22 -9 -5 3 -8 0 -6 -7 1 -8 -12 -30 -30
-49 -18 -19 -32 -30 -32 -23 0 6 7 16 16 24 8 7 22 25 30 41 8 16 19 26 24 23
5 -3 11 -1 15 5 3 5 9 10 12 10 3 0 0 -7 -7 -15z m358 -82 c-5 -21 -12 -40
-15 -43 -6 -6 7 61 14 73 10 17 11 4 1 -30z m-775 -300 c-5 -12 -3 -14 8 -9 8
4 -15 -21 -51 -56 -42 -40 -92 -76 -140 -100 -41 -21 -68 -38 -60 -39 22 -2
-80 -27 -110 -27 -18 0 -12 4 20 15 34 12 69 40 140 112 97 99 98 98 16 -4
-39 -48 -32 -43 35 28 76 79 99 98 99 81 0 -3 -26 -33 -57 -67 l-58 -61 60 51
c33 28 69 60 79 72 23 25 27 26 19 4z m0 -57 c-10 -13 -20 -22 -22 -20 -4 4
29 44 36 44 2 0 -4 -11 -14 -24z m-53 -50 c0 -2 -7 -9 -15 -16 -13 -11 -14
-10 -9 4 5 14 24 23 24 12z m-591 -82 c-13 -14 -46 -42 -74 -61 -58 -41 -44
-24 35 41 62 52 75 58 39 20z m-765 -19 c-4 -8 -11 -15 -16 -15 -6 0 -5 6 2
15 7 8 14 15 16 15 2 0 1 -7 -2 -15z m611 -5 c-9 -10 -20 -19 -24 -18 -20 2
-31 -4 -25 -14 4 -6 3 -8 -3 -5 -6 4 -23 -5 -38 -19 -16 -15 -33 -27 -39 -28
-6 -1 -22 -9 -36 -18 -57 -37 -262 -78 -276 -56 -3 5 -10 5 -16 2 -7 -4 -8 -2
-4 4 4 7 29 12 56 12 58 0 134 27 214 75 65 39 74 42 56 20 -7 -9 -10 -18 -6
-22 3 -3 6 0 6 7 0 7 3 11 6 8 3 -3 17 5 31 18 14 13 28 22 31 19 2 -2 14 1
26 7 11 7 24 12 28 13 3 0 10 3 14 8 16 16 16 6 -1 -13z m-205 0 c0 -5 -19
-19 -42 -31 -48 -24 -48 -21 2 15 42 29 40 28 40 16z m660 -180 c-8 -5 -19
-10 -25 -10 -5 0 -3 5 5 10 8 5 20 10 25 10 6 0 3 -5 -5 -10z m-881 -36 c9 -8
-75 -3 -88 5 -8 5 5 7 35 4 27 -3 51 -7 53 -9z m89 -1 c-10 -2 -28 -2 -40 0
-13 2 -5 4 17 4 22 1 32 -1 23 -4z"/>
<path d="M1599 4033 l-24 -28 28 24 c25 23 32 31 24 31 -2 0 -14 -12 -28 -27z"/>
<path d="M2731 4074 c-82 -17 -143 -38 -217 -73 -57 -27 -104 -52 -104 -56 0
-3 26 8 58 24 191 96 399 129 637 100 258 -32 523 -163 723 -357 98 -95 119
-110 65 -47 -117 136 -228 223 -393 305 -247 124 -508 159 -769 104z"/>
<path d="M2379 3923 c-13 -16 -12 -17 4 -4 16 13 21 21 13 21 -2 0 -10 -8 -17
-17z"/>
<path d="M2382 3900 c-34 -22 -62 -37 -62 -35 0 3 -18 -6 -39 -19 -21 -14 -43
-22 -47 -18 -5 4 -6 3 -2 -2 5 -5 -9 -21 -30 -35 -30 -20 -33 -26 -19 -29 11
-2 29 5 40 16 12 11 67 50 122 87 103 69 112 75 103 75 -3 0 -33 -18 -66 -40z"/>
<path d="M2500 3870 c-8 -5 -10 -10 -5 -10 6 0 17 5 25 10 8 5 11 10 5 10 -5
0 -17 -5 -25 -10z"/>
<path d="M2425 3840 c-3 -6 1 -7 9 -4 18 7 21 14 7 14 -6 0 -13 -4 -16 -10z"/>
<path d="M2938 3873 c6 -2 18 -2 25 0 6 3 1 5 -13 5 -14 0 -19 -2 -12 -5z"/>
<path d="M2775 1760 c3 -5 8 -10 11 -10 2 0 4 5 4 10 0 6 -5 10 -11 10 -5 0
-7 -4 -4 -10z"/>
<path d="M2250 1600 c-6 -11 -8 -20 -6 -20 3 0 10 9 16 20 6 11 8 20 6 20 -3
0 -10 -9 -16 -20z"/>
<path d="M2737 1599 c7 -7 15 -10 18 -7 3 3 -2 9 -12 12 -14 6 -15 5 -6 -5z"/>
<path d="M2506 1561 c-3 -4 3 -16 13 -25 13 -11 21 -14 26 -7 6 11 5 12 -17
15 -7 1 -12 7 -10 14 2 14 -4 16 -12 3z"/>
<path d="M2210 1517 c0 -3 12 -19 26 -34 20 -21 24 -23 16 -7 -6 12 -8 25 -4
30 4 5 3 6 -2 2 -5 -4 -15 -3 -23 3 -7 6 -13 9 -13 6z"/>
<path d="M2400 1476 c0 -2 8 -10 18 -17 15 -13 16 -12 3 4 -13 16 -21 21 -21
13z"/>
<path d="M2506 1468 c3 -4 9 -8 15 -8 5 0 9 4 9 8 0 5 -7 9 -15 9 -8 0 -12 -4
-9 -9z"/>
<path d="M2153 1443 c0 -9 4 -10 14 -2 7 6 13 12 13 14 0 1 -6 2 -13 2 -8 0
-14 -6 -14 -14z"/>
<path d="M2326 1408 c3 -5 10 -6 15 -3 13 9 11 12 -6 12 -8 0 -12 -4 -9 -9z"/>
<path d="M3798 865 c-10 -13 -18 -27 -18 -31 0 -10 30 17 41 38 14 26 -3 22
-23 -7z"/>
<path d="M1549 4703 c-13 -16 -12 -17 4 -4 9 7 17 15 17 17 0 8 -8 3 -21 -13z"/>
<path d="M3078 4703 c6 -2 18 -2 25 0 6 3 1 5 -13 5 -14 0 -19 -2 -12 -5z"/>
<path d="M3148 4693 c6 -2 18 -2 25 0 6 3 1 5 -13 5 -14 0 -19 -2 -12 -5z"/>
<path d="M1492 4664 c-27 -21 -71 -84 -59 -84 2 0 25 25 51 55 26 30 46 55 44
55 -2 0 -18 -12 -36 -26z"/>
<path d="M2213 4650 c-23 -10 -44 -16 -47 -13 -3 4 -6 1 -6 -6 0 -7 -4 -10 -8
-7 -5 3 -37 -8 -72 -25 -52 -24 -65 -27 -79 -17 -15 12 -15 11 -1 -6 14 -18
13 -19 -5 -12 -13 5 -17 4 -10 -3 23 -23 295 68 295 99 0 14 -19 11 -67 -10z"/>
<path d="M3375 4631 c44 -20 185 -58 185 -51 0 11 -79 35 -175 54 -23 4 -25 3
-10 -3z"/>
<path d="M1261 4551 c-31 -31 -38 -34 -34 -17 3 15 -9 6 -41 -29 -54 -58 -128
-203 -151 -292 -16 -64 -40 -271 -32 -279 2 -2 12 17 22 43 9 27 39 89 65 138
26 50 66 146 90 215 25 72 62 153 87 193 23 37 41 67 38 67 -3 0 -22 -17 -44
-39z m-149 -353 c-6 -6 -7 0 -4 19 5 21 7 23 10 9 2 -10 0 -22 -6 -28z"/>
<path d="M2338 4583 c7 -3 16 -2 19 1 4 3 -2 6 -13 5 -11 0 -14 -3 -6 -6z"/>
<path d="M1114 4487 c-91 -97 -156 -252 -152 -362 0 -27 2 -32 5 -15 3 14 16
65 29 114 34 122 63 175 152 285 50 61 32 50 -34 -22z"/>
<path d="M1337 4543 c-50 -91 -78 -146 -69 -138 14 13 85 145 79 145 -3 0 -8
-3 -10 -7z"/>
<path d="M2348 4533 c7 -3 16 -2 19 1 4 3 -2 6 -13 5 -11 0 -14 -3 -6 -6z"/>
<path d="M2288 4523 c7 -3 16 -2 19 1 4 3 -2 6 -13 5 -11 0 -14 -3 -6 -6z"/>
<path d="M2213 4513 c9 -2 25 -2 35 0 9 3 1 5 -18 5 -19 0 -27 -2 -17 -5z"/>
<path d="M1069 4493 c-13 -16 -12 -17 4 -4 9 7 17 15 17 17 0 8 -8 3 -21 -13z"/>
<path d="M2082 4495 c-113 -21 -172 -41 -232 -79 -30 -20 -49 -36 -43 -36 7 0
35 14 62 30 67 41 150 66 173 51 14 -8 17 -8 16 1 -2 7 23 17 61 25 64 13 91
24 55 22 -10 -1 -52 -7 -92 -14z"/>
<path d="M3730 4497 c0 -3 15 -10 32 -16 18 -6 28 -7 23 -2 -12 10 -55 25 -55
18z"/>
<path d="M3900 4346 c0 -3 21 -19 48 -37 26 -17 75 -59 109 -92 49 -48 61 -56
56 -36 -7 28 -32 61 -43 54 -4 -2 -18 7 -30 20 -25 26 -18 34 10 13 9 -7 0 2
-19 20 -20 19 -45 38 -56 44 -11 6 -4 -4 15 -20 33 -30 34 -47 1 -19 -24 20
-91 59 -91 53z"/>
<path d="M1701 4285 c-35 -8 -82 -23 -104 -34 -22 -11 -45 -17 -50 -14 -6 4
-7 1 -2 -7 6 -9 4 -12 -7 -8 -8 4 -15 1 -15 -7 0 -8 21 -3 63 17 35 16 103 38
151 48 48 10 75 18 58 18 -16 0 -59 -6 -94 -13z"/>
<path d="M953 4005 c0 -44 2 -61 4 -37 2 23 2 59 0 80 -2 20 -4 1 -4 -43z"/>
<path d="M4190 4047 c0 -2 15 -16 33 -33 l32 -29 -29 33 c-28 30 -36 37 -36
29z"/>
<path d="M962 3890 c0 -19 2 -27 5 -17 2 9 2 25 0 35 -3 9 -5 1 -5 -18z"/>
<path d="M4150 3886 c0 -2 8 -10 18 -17 15 -13 16 -12 3 4 -13 16 -21 21 -21
13z"/>
<path d="M1196 3855 c-9 -26 -7 -32 5 -12 6 10 9 21 6 23 -2 3 -7 -2 -11 -11z"/>
<path d="M502 3852 c-7 -5 14 -6 47 -4 33 2 68 -1 82 -7 23 -12 23 -11 5 3
-21 17 -111 22 -134 8z"/>
<path d="M4030 3856 c0 -2 7 -7 16 -10 8 -3 12 -2 9 4 -6 10 -25 14 -25 6z"/>
<path d="M442 3756 c-11 -19 -18 -37 -15 -39 4 -5 30 7 63 28 16 10 19 11 60
14 l25 2 -25 14 c-19 10 -28 11 -39 2 -12 -9 -13 -9 -7 1 5 8 0 12 -17 12 -18
0 -31 -10 -45 -34z"/>
<path d="M528 3683 c7 -3 16 -2 19 1 4 3 -2 6 -13 5 -11 0 -14 -3 -6 -6z"/>
<path d="M447 3637 c-40 -13 -107 -61 -107 -78 0 -5 13 0 29 12 25 18 31 19
50 8 11 -8 21 -19 21 -26 0 -9 7 -10 24 -3 39 14 38 -1 -2 -30 -45 -33 -94
-118 -96 -170 0 -21 -4 -36 -8 -33 -6 3 0 -56 7 -64 1 -2 9 5 17 15 66 72 89
92 107 92 12 0 21 6 21 15 0 17 13 19 38 7 12 -6 22 -3 34 9 16 17 15 18 -10
28 -22 9 -16 10 35 7 34 -3 72 -10 85 -16 21 -10 21 -10 5 3 -22 18 -12 51 14
44 23 -6 24 -3 2 22 -9 11 -21 17 -26 14 -6 -3 -7 -1 -4 5 4 6 -15 21 -45 36
-29 14 -45 26 -37 26 21 -1 92 -35 112 -54 9 -10 17 -13 17 -7 0 6 -18 23 -40
37 -46 31 -48 34 -17 27 22 -4 22 -4 2 11 -11 9 -28 23 -37 31 -10 8 -18 11
-18 7 0 -4 -4 -1 -9 7 -5 8 -18 15 -28 17 -10 1 -36 4 -58 7 -22 4 -57 1 -78
-6z m151 -184 c-10 -2 -28 -2 -40 0 -13 2 -5 4 17 4 22 1 32 -1 23 -4z m77 -3
c-3 -5 -18 -9 -33 -9 l-27 1 30 8 c17 4 31 8 33 9 2 0 0 -3 -3 -9z"/>
<path d="M796 3511 c4 -17 3 -22 -6 -16 -9 5 -11 4 -6 -4 4 -6 12 -9 17 -6 8
6 13 -8 10 -27 0 -4 6 -5 14 -2 21 8 19 19 -11 51 -24 27 -25 27 -18 4z"/>
<path d="M365 3454 c-26 -40 -45 -103 -45 -148 1 -53 15 -30 25 39 3 28 15 69
25 93 21 48 20 54 -5 16z"/>
<path d="M4529 3451 c7 -12 16 -21 22 -21 6 0 8 -4 5 -9 -3 -4 1 -17 10 -27
14 -18 15 -18 4 4 -16 34 -3 26 16 -9 8 -17 11 -28 5 -24 -7 3 1 -18 16 -49
14 -30 31 -52 37 -49 5 4 7 -1 3 -11 -4 -11 -3 -15 4 -11 6 4 9 1 7 -6 -4 -20
23 -109 33 -109 11 0 0 64 -23 129 -10 30 -18 61 -18 70 -1 24 -54 90 -96 118
-33 23 -35 24 -25 4z"/>
<path d="M4310 3425 c0 -6 34 -67 76 -135 80 -132 132 -246 170 -370 12 -41
23 -66 23 -55 2 36 -28 137 -65 225 -60 140 -64 149 -74 155 -6 4 -8 10 -5 15
3 4 -15 34 -39 66 -68 90 -86 110 -86 99z"/>
<path d="M1709 3393 c-13 -16 -12 -17 4 -4 16 13 21 21 13 21 -2 0 -10 -8 -17
-17z"/>
<path d="M588 3373 c7 -3 16 -2 19 1 4 3 -2 6 -13 5 -11 0 -14 -3 -6 -6z"/>
<path d="M3038 3363 c7 -3 16 -2 19 1 4 3 -2 6 -13 5 -11 0 -14 -3 -6 -6z"/>
<path d="M468 3339 c-14 -6 -29 -16 -31 -23 -4 -11 7 -10 54 2 36 10 54 19 46
24 -15 10 -35 9 -69 -3z"/>
<path d="M1576 3301 c-4 -5 -2 -12 3 -15 5 -4 12 -2 15 3 4 5 2 12 -3 15 -5 4
-12 2 -15 -3z"/>
<path d="M457 3279 c7 -7 15 -10 18 -7 3 3 -2 9 -12 12 -14 6 -15 5 -6 -5z"/>
<path d="M1603 3278 c-6 -7 -13 -19 -17 -25 -12 -21 18 -5 32 17 13 22 1 28
-15 8z"/>
<path d="M407 3263 c-4 -3 -7 -11 -7 -17 0 -6 5 -5 12 2 6 6 9 14 7 17 -3 3
-9 2 -12 -2z"/>
<path d="M4750 3157 c4 -41 5 -41 8 -8 2 18 0 37 -5 42 -5 5 -6 -11 -3 -34z"/>
<path d="M562 2942 c-23 -2 -40 -7 -37 -13 4 -5 -5 -9 -18 -9 -28 0 -72 -43
-62 -61 5 -7 3 -10 -6 -7 -12 4 -65 -59 -57 -68 2 -1 22 10 45 25 23 16 39 31
36 35 -4 3 1 6 9 6 9 0 31 2 49 5 28 4 30 4 14 -5 -17 -9 -14 -10 13 -5 18 2
31 1 28 -3 -3 -5 5 -8 16 -7 12 1 33 -4 47 -11 27 -14 111 -94 98 -94 -4 0 -3
-10 4 -21 7 -15 8 -19 0 -15 -7 5 -9 1 -5 -8 3 -9 9 -14 13 -11 20 12 2 -46
-24 -78 -29 -35 -32 -36 -112 -39 l-83 -3 0 36 c0 74 90 155 142 128 21 -10
20 -9 -5 18 -15 16 -47 40 -71 51 -76 38 -140 26 -203 -40 -29 -30 -69 -108
-56 -108 3 0 -1 -8 -8 -17 -13 -16 -12 -17 3 -5 9 8 24 35 33 60 8 26 26 55
39 64 l24 17 -18 -37 c-26 -52 -38 -83 -44 -114 -4 -17 -13 -28 -23 -28 -14 0
-14 3 3 23 17 20 16 20 -9 -2 -27 -25 -36 -38 -17 -26 12 7 8 -25 -8 -66 -6
-14 -7 -32 -2 -39 14 -22 10 -103 -6 -128 -9 -13 -13 -27 -9 -30 3 -4 9 -2 13
4 13 21 55 36 82 31 22 -5 29 -1 39 19 6 14 12 42 12 62 1 27 4 19 11 -28 18
-133 72 -192 151 -168 21 6 44 19 53 29 15 17 15 18 -5 14 -17 -3 -21 1 -21
23 0 21 2 24 10 12 9 -13 14 -7 11 12 0 4 5 5 12 2 18 -7 92 67 101 101 4 16
15 35 24 42 13 10 14 12 2 10 -8 -2 -12 -2 -7 0 4 3 5 9 2 14 -4 5 2 6 11 2
12 -4 15 -3 10 5 -4 7 -1 12 7 12 23 0 29 28 8 40 -10 5 -21 19 -24 31 -5 20
-5 20 15 2 21 -18 21 -18 9 4 -15 29 -14 34 5 26 14 -5 15 -3 6 14 -6 11 -8
23 -5 27 3 3 1 6 -6 6 -7 0 -9 5 -6 10 4 6 -3 27 -14 46 -12 19 -16 32 -10 28
7 -4 10 -1 7 7 -3 8 -10 13 -15 12 -6 -1 -9 9 -7 23 1 14 0 24 -2 21 -2 -2
-30 20 -62 50 -84 79 -101 88 -150 85z m134 -123 c4 -8 1 -8 -14 0 -12 6 -24
16 -28 22 -4 8 -1 8 14 0 12 -6 24 -16 28 -22z m45 4 c13 -16 12 -17 -3 -4
-10 7 -18 15 -18 17 0 8 8 3 21 -13z m-21 -27 c0 -3 -4 -8 -10 -11 -5 -3 -10
-1 -10 4 0 6 5 11 10 11 6 0 10 -2 10 -4z m-220 -176 c-39 -111 -19 -259 47
-343 18 -24 16 -22 -10 6 -54 59 -81 141 -75 235 3 53 12 91 27 120 12 24 24
42 26 40 2 -2 -5 -28 -15 -58z"/>
<path d="M3157 2889 c7 -7 15 -10 18 -7 3 3 -2 9 -12 12 -14 6 -15 5 -6 -5z"/>
<path d="M3500 2781 c0 -6 4 -13 10 -16 6 -3 7 1 4 9 -7 18 -14 21 -14 7z"/>
<path d="M3666 2751 c-4 -5 -2 -12 3 -15 5 -4 12 -2 15 3 4 5 2 12 -3 15 -5 4
-12 2 -15 -3z"/>
<path d="M3528 2739 c6 -9 8 -20 4 -25 -4 -5 -3 -6 2 -2 5 4 17 -3 28 -15 17
-20 18 -20 9 -2 -5 11 -20 29 -32 40 -13 11 -18 13 -11 4z"/>
<path d="M3600 2746 c0 -2 8 -10 18 -17 15 -13 16 -12 3 4 -13 16 -21 21 -21
13z"/>
<path d="M4714 2686 c-3 -9 -3 -32 0 -51 4 -21 3 -35 -3 -35 -6 0 -8 -25 -5
-62 9 -117 8 -110 21 -92 7 9 15 36 19 60 4 27 10 41 17 37 5 -3 7 -2 4 4 -3
5 -7 27 -9 49 -3 50 -35 115 -44 90z"/>
<path d="M1181 2494 c0 -11 3 -14 6 -6 3 7 2 16 -1 19 -3 4 -6 -2 -5 -13z"/>
<path d="M1353 2454 c9 -11 14 -25 10 -29 -5 -5 0 -4 9 3 14 11 18 10 28 -8 6
-11 15 -18 20 -15 5 3 13 -3 19 -12 6 -10 11 -13 11 -6 0 13 -59 62 -65 53 -1
-3 -13 4 -26 15 l-24 20 18 -21z"/>
<path d="M1435 2440 c10 -11 20 -20 23 -20 3 0 -3 9 -13 20 -10 11 -20 20 -23
20 -3 0 3 -9 13 -20z"/>
<path d="M970 2401 c0 -5 7 -15 17 -22 15 -13 15 -12 4 9 -12 23 -21 28 -21
13z"/>
<path d="M1113 2404 c4 -4 1 -14 -6 -23 -11 -14 -10 -15 8 -1 11 8 21 15 23
16 2 1 -5 5 -15 8 -9 4 -14 4 -10 0z"/>
<path d="M1206 2382 c-3 -5 1 -9 9 -9 8 0 12 4 9 9 -3 4 -7 8 -9 8 -2 0 -6 -4
-9 -8z"/>
<path d="M966 2367 c3 -10 9 -15 12 -12 3 3 0 11 -7 18 -10 9 -11 8 -5 -6z"/>
<path d="M1236 2363 c-6 -14 -5 -15 5 -6 7 7 10 15 7 18 -3 3 -9 -2 -12 -12z"/>
<path d="M4718 2303 c5 -83 -3 -157 -16 -149 -15 9 -10 -71 7 -134 l18 -65 8
119 c8 126 3 245 -13 286 -6 16 -7 -1 -4 -57z"/>
<path d="M378 2323 c7 -3 16 -2 19 1 4 3 -2 6 -13 5 -11 0 -14 -3 -6 -6z"/>
<path d="M915 2299 c-11 -16 -1 -19 13 -3 7 8 8 14 3 14 -5 0 -13 -5 -16 -11z"/>
<path d="M690 2265 c-43 -44 -123 -85 -167 -85 -18 0 -33 3 -33 8 0 4 -13 13
-30 20 -23 11 -37 11 -64 2 -31 -10 -69 -40 -52 -40 4 0 0 -7 -8 -16 -33 -33
-17 -42 32 -18 57 28 82 31 30 3 -37 -19 -70 -58 -74 -86 -1 -7 2 -11 7 -7 5
3 6 11 3 17 -4 7 -4 9 1 5 4 -4 15 -2 24 5 13 10 12 8 -1 -12 -9 -13 -14 -30
-11 -39 4 -8 2 -13 -3 -10 -5 4 -9 -5 -9 -18 0 -13 3 -24 7 -24 4 0 6 -9 5
-20 -1 -11 -4 -20 -8 -20 -4 0 -9 -9 -12 -19 -3 -13 0 -18 12 -16 9 1 16 6 16
11 1 5 7 20 14 33 8 14 9 21 2 17 -6 -4 -11 -5 -11 -3 0 3 15 14 33 26 17 11
26 21 18 21 -23 0 38 47 112 86 37 20 82 51 100 71 18 19 42 46 55 60 20 22
57 83 49 83 -2 0 -18 -16 -37 -35z"/>
<path d="M4607 2217 c-18 -55 -27 -105 -27 -148 0 -35 -7 -136 -15 -224 -17
-190 -19 -309 -5 -300 6 3 10 1 10 -4 0 -6 7 -11 15 -11 9 0 15 9 15 21 0 15
5 19 15 15 12 -4 15 3 15 32 0 26 3 33 9 23 5 -8 8 -19 7 -25 -2 -6 -1 -7 2
-3 2 4 11 2 19 -5 12 -10 12 -5 -2 27 -59 134 -61 158 -40 443 9 128 15 235
13 237 -2 3 -16 -33 -31 -78z"/>
<path d="M390 2280 c0 -6 7 -10 15 -10 8 0 15 2 15 4 0 2 -7 6 -15 10 -8 3
-15 1 -15 -4z"/>
<path d="M930 2280 c0 -5 5 -10 11 -10 5 0 7 5 4 10 -3 6 -8 10 -11 10 -2 0
-4 -4 -4 -10z"/>
<path d="M1602 2238 c7 -13 11 -27 10 -31 -1 -5 2 -6 8 -2 6 4 4 15 -6 31 -20
30 -29 32 -12 2z"/>
<path d="M380 2240 c13 -8 13 -10 -2 -10 -9 0 -19 -4 -22 -9 -9 -14 42 0 55
15 9 11 6 14 -17 14 -22 0 -26 -3 -14 -10z"/>
<path d="M4702 2205 c0 -16 2 -22 5 -12 2 9 2 23 0 30 -3 6 -5 -1 -5 -18z"/>
<path d="M1640 2156 c0 -2 8 -10 18 -17 15 -13 16 -12 3 4 -13 16 -21 21 -21
13z"/>
<path d="M1747 2079 c7 -7 15 -10 18 -7 3 3 -2 9 -12 12 -14 6 -15 5 -6 -5z"/>
<path d="M3000 2040 c0 -6 7 -10 15 -10 8 0 15 2 15 4 0 2 -7 6 -15 10 -8 3
-15 1 -15 -4z"/>
<path d="M2390 2026 c0 -2 7 -7 16 -10 8 -3 12 -2 9 4 -6 10 -25 14 -25 6z"/>
<path d="M4691 2005 c0 -17 -6 -36 -12 -42 -12 -12 -9 -206 4 -219 12 -13 18
2 29 73 8 53 7 84 -5 143 -9 44 -15 63 -16 45z m6 -82 c-3 -10 -5 -2 -5 17 0
19 2 27 5 18 2 -10 2 -26 0 -35z m10 -60 c-3 -10 -5 -4 -5 12 0 17 2 24 5 18
2 -7 2 -21 0 -30z"/>
<path d="M2108 1993 c7 -3 16 -2 19 1 4 3 -2 6 -13 5 -11 0 -14 -3 -6 -6z"/>
<path d="M2860 1970 c0 -5 5 -10 11 -10 5 0 7 5 4 10 -3 6 -8 10 -11 10 -2 0
-4 -4 -4 -10z"/>
<path d="M533 1774 c-11 -18 -16 -42 -14 -78 3 -52 16 -72 37 -56 16 14 26 -1
12 -19 -8 -10 -4 -9 10 3 12 11 22 15 22 11 0 -5 12 2 27 16 14 13 23 18 18
11 -6 -11 -3 -12 14 -3 11 7 21 16 21 22 0 6 4 8 8 5 4 -2 13 3 19 13 18 29
-25 88 -59 82 -5 0 -8 3 -8 8 0 17 -33 5 -53 -20 -16 -19 -19 -20 -13 -5 7 19
6 19 -13 2 -20 -18 -24 -5 -8 22 16 24 -3 11 -20 -14z m77 -122 c0 -5 -7 -9
-15 -9 -8 0 -12 4 -9 9 3 4 9 8 15 8 5 0 9 -4 9 -8z"/>
<path d="M4532 1405 c0 -16 2 -22 5 -12 2 9 2 23 0 30 -3 6 -5 -1 -5 -18z"/>
<path d="M702 1290 c0 -14 2 -19 5 -12 2 6 2 18 0 25 -3 6 -5 1 -5 -13z"/>
<path d="M1590 1225 c0 -5 5 -17 10 -25 5 -8 10 -10 10 -5 0 6 -5 17 -10 25
-5 8 -10 11 -10 5z"/>
<path d="M791 1204 c0 -11 3 -14 6 -6 3 7 2 16 -1 19 -3 4 -6 -2 -5 -13z"/>
<path d="M1610 1165 c0 -5 5 -17 10 -25 5 -8 10 -10 10 -5 0 6 -5 17 -10 25
-5 8 -10 11 -10 5z"/>
<path d="M1432 1105 c0 -16 2 -22 5 -12 2 9 2 23 0 30 -3 6 -5 -1 -5 -18z"/>
<path d="M930 1083 c0 -18 20 -66 25 -61 3 3 -1 20 -9 39 -9 19 -15 29 -16 22z"/>
<path d="M1441 1056 c-16 -19 -3 -50 15 -35 8 6 14 16 14 21 0 6 -7 5 -15 -2
-18 -15 -20 1 -3 18 7 7 9 12 6 12 -3 0 -11 -6 -17 -14z"/>
<path d="M1006 969 c11 -18 25 -34 32 -37 20 -6 -5 42 -30 57 l-21 13 19 -33z"/>
<path d="M4312 832 c-10 -23 -21 -40 -24 -37 -3 3 -12 -5 -21 -18 -13 -20 -13
-24 -1 -24 8 0 14 9 14 19 0 11 4 17 10 13 9 -6 54 75 45 83 -3 3 -13 -14 -23
-36z"/>
<path d="M1147 703 c14 -43 30 -82 35 -88 4 -5 -1 17 -12 50 -12 35 -18 70
-15 85 4 14 3 22 -1 18 -4 -4 -13 -3 -20 3 -8 7 -3 -20 13 -68z"/>
<path d="M1315 668 c23 -49 42 -79 29 -44 -6 15 -3 17 14 11 12 -3 22 -2 22 2
0 19 -51 77 -69 78 -17 1 -17 -1 4 -47z"/>
<path d="M4200 678 c-12 -22 -12 -22 6 -6 10 10 15 20 12 24 -4 3 -12 -5 -18
-18z"/>
<path d="M1441 618 c-1 -9 4 -39 11 -67 10 -44 14 -49 27 -38 12 9 13 9 7 0
-8 -15 -5 -16 19 -7 14 6 12 11 -12 33 -16 14 -34 42 -40 61 -6 19 -11 27 -12
18z"/>
<path d="M4056 483 c-6 -14 -5 -15 5 -6 7 7 10 15 7 18 -3 3 -9 -2 -12 -12z"/>
<path d="M1666 460 c6 -8 36 -54 68 -102 53 -80 87 -110 104 -93 4 4 -7 19
-23 34 -17 15 -42 45 -58 67 -15 22 -44 56 -64 75 -20 18 -33 27 -27 19z"/>
<path d="M4012 455 c4 -4 3 -14 -3 -22 -9 -10 -8 -13 5 -13 19 0 22 26 4 36
-7 4 -10 4 -6 -1z"/>
<path d="M1725 309 c7 -15 64 -64 69 -58 1 2 -15 19 -36 38 -21 18 -36 27 -33
20z"/>
<path d="M1835 231 c-3 -5 -1 -12 4 -15 5 -4 12 -2 15 3 3 5 16 7 29 4 18 -4
19 -3 7 6 -19 13 -47 14 -55 2z"/>
</g>
</svg>
