<?xml version="1.0" standalone="no"?>
<!DOCTYPE svg PUBLIC "-//W3C//DTD SVG 20010904//EN"
 "http://www.w3.org/TR/2001/REC-SVG-20010904/DTD/svg10.dtd">
<svg version="1.0" xmlns="http://www.w3.org/2000/svg"
 width="1280.000000pt" height="1280.000000pt" viewBox="0 0 1280.000000 1280.000000"
 preserveAspectRatio="xMidYMid meet">
<metadata>
Created by potrace 1.14, written by Peter Selinger 2001-2017
</metadata>
<g transform="translate(0.000000,1280.000000) scale(0.100000,-0.100000)"
fill="#000000" stroke="none">
<path d="M7920 11809 c-814 -34 -1842 -218 -2795 -500 -767 -228 -1215 -408
-1745 -701 -752 -417 -1081 -625 -1408 -890 l-72 -59 0 -52 c0 -149 65 -343
149 -447 138 -172 284 -245 551 -276 159 -19 312 -9 513 32 532 108 693 126
1777 205 193 14 398 22 595 23 298 1 619 -9 637 -20 5 -3 44 -12 86 -19 42 -8
97 -18 122 -24 25 -5 66 -13 93 -16 26 -3 45 -10 42 -15 -3 -4 2 -11 11 -14 9
-4 13 -2 8 5 -14 23 68 -2 201 -61 22 -10 50 -21 63 -25 12 -3 22 -13 22 -20
0 -8 10 -19 21 -26 15 -8 19 -8 15 0 -10 16 6 14 32 -5 12 -8 19 -20 16 -26
-4 -6 1 -8 12 -4 11 3 26 1 34 -5 13 -9 13 -10 -1 -6 -13 4 -15 1 -12 -14 10
-37 66 -60 84 -35 4 4 9 3 13 -3 9 -13 -35 -25 -74 -19 -17 3 -30 1 -30 -4 0
-12 88 -10 113 3 18 9 20 9 10 -2 -10 -10 -13 -92 -13 -339 0 -240 -3 -329
-12 -338 -9 -9 -9 -12 0 -12 8 0 12 -20 12 -60 0 -36 4 -60 11 -60 5 0 7 -5 3
-11 -4 -7 -9 -7 -13 -2 -3 5 -39 20 -80 33 -40 14 -75 30 -78 37 -3 6 -11 9
-19 6 -7 -3 -33 6 -56 20 -24 13 -48 22 -55 20 -6 -2 -23 3 -36 11 -13 9 -27
13 -30 9 -13 -12 -7 13 6 27 6 8 3 7 -9 -3 -22 -18 -44 -23 -44 -9 0 5 -19 14
-42 20 -24 6 -77 20 -118 32 -169 48 -269 62 -470 67 -184 5 -202 3 -325 -23
-71 -15 -140 -28 -152 -28 -11 -1 -19 -4 -16 -8 2 -5 -4 -8 -14 -8 -24 0 -195
-64 -227 -85 -14 -10 -26 -14 -26 -10 0 5 -8 2 -17 -6 -10 -8 -31 -21 -48 -29
-181 -88 -431 -275 -596 -446 -116 -120 -140 -150 -222 -271 -138 -205 -231
-427 -273 -648 -28 -146 -25 -519 4 -655 92 -423 366 -731 757 -848 113 -33
244 -45 376 -32 63 6 128 15 144 20 113 32 213 63 230 71 12 6 27 11 35 13 8
2 29 8 45 15 66 27 109 40 118 34 6 -3 7 -2 4 3 -7 13 262 97 373 118 148 27
372 48 472 45 53 -2 92 -2 87 1 -4 3 24 7 64 8 40 1 95 3 124 6 34 2 58 -1 70
-10 10 -7 27 -14 38 -14 12 -1 15 -4 7 -7 -7 -3 -26 0 -42 7 -19 8 -43 9 -67
5 -23 -5 -31 -10 -20 -12 9 -3 17 -9 17 -13 0 -6 11 -5 26 0 14 6 33 10 42 10
15 0 15 -2 2 -10 -12 -8 -9 -10 10 -8 l25 3 3 -1362 c2 -1293 1 -1363 -15
-1365 -10 0 2 -4 27 -8 l45 -7 -42 -1 c-23 -1 -45 3 -48 8 -3 6 -23 10 -43 9
-20 0 -30 -3 -22 -6 43 -14 44 -16 10 -24 -19 -5 -78 -5 -130 -2 -119 9 -103
9 -245 0 -139 -9 -269 -22 -410 -43 -55 -9 -190 -29 -300 -45 -347 -52 -397
-58 -540 -69 -77 -5 -187 -14 -245 -20 -712 -70 -777 -74 -1235 -75 -300 0
-477 4 -555 13 -448 51 -707 120 -995 265 -180 90 -435 265 -579 397 l-60 55
24 -40 c97 -162 349 -508 495 -680 408 -479 926 -816 1560 -1013 540 -169 709
-194 1935 -287 194 -15 483 -31 1073 -60 169 -8 443 -22 610 -30 734 -36 932
-44 1257 -50 378 -7 858 6 1072 29 433 47 832 192 1258 456 398 248 717 556
1002 970 58 84 97 146 238 375 374 609 563 1185 647 1975 21 201 24 706 5 910
-98 1045 -306 1945 -629 2715 -236 562 -541 1144 -828 1580 -458 696 -931
1156 -1450 1410 -464 228 -795 333 -1195 379 -126 15 -484 38 -540 34 -14 0
-113 -5 -220 -9z m-975 -2975 c20 -15 20 -16 -4 -12 -14 2 -26 9 -29 16 -5 16
9 15 33 -4z m109 -86 c-5 -8 -2 -9 9 -5 19 7 23 -8 6 -19 -6 -3 -15 -1 -19 7
-8 12 -5 29 6 29 3 0 2 -5 -2 -12z m79 -63 c-7 -21 -12 -19 -10 4 0 11 5 18 9
15 4 -3 5 -11 1 -19z m40 -39 c-3 -4 1 -12 8 -17 9 -6 10 -9 2 -9 -6 0 -18 7
-27 15 -20 20 -30 19 -21 -2 5 -14 3 -15 -6 -6 -16 16 -4 31 25 29 13 0 22 -5
19 -10z m128 -153 c13 -16 12 -17 -3 -4 -10 7 -18 15 -18 17 0 8 8 3 21 -13z
m103 -69 c5 -14 4 -15 -9 -4 -17 14 -19 20 -6 20 5 0 12 -7 15 -16z m-304
-454 c-28 -6 -30 -8 -10 -9 27 -1 65 -21 42 -21 -7 0 -11 -4 -8 -8 2 -4 -5 -9
-16 -9 -20 -2 -20 -1 -2 12 18 14 18 14 -3 15 -12 0 -24 -6 -26 -12 -3 -8 -6
-5 -6 6 -1 14 -7 17 -25 14 -15 -3 -23 -1 -20 6 2 6 28 12 57 13 46 1 48 0 17
-7z m80 0 c0 -5 -10 -10 -22 -9 -22 0 -22 1 -3 9 11 5 21 9 23 9 1 1 2 -3 2
-9z m10 -30 c-20 -13 -33 -13 -25 0 3 6 14 10 23 10 15 0 15 -2 2 -10z m95
-60 c-3 -5 -1 -10 6 -10 7 0 10 -2 7 -5 -3 -3 -13 -2 -22 1 -14 5 -15 9 -4 15
17 11 20 11 13 -1z m132 4 c-3 -3 -12 -4 -19 -1 -8 3 -5 6 6 6 11 1 17 -2 13
-5z m-1054 -33 c108 -38 191 -89 273 -169 95 -92 117 -118 165 -198 122 -200
199 -522 199 -833 1 -162 -22 -279 -75 -396 -34 -74 -121 -201 -155 -226 -14
-10 -32 -25 -40 -32 -89 -82 -398 -230 -565 -271 -249 -61 -545 -43 -755 46
-276 117 -479 375 -551 698 -24 108 -26 326 -4 432 24 113 82 267 139 368 14
25 30 54 35 66 20 45 135 186 203 249 175 162 380 261 588 285 41 5 167 7 280
5 174 -3 214 -7 263 -24z m1002 9 c3 -6 -1 -7 -9 -4 -18 7 -21 14 -7 14 6 0
13 -4 16 -10z m49 1 c6 -10 -24 -25 -32 -16 -3 3 0 5 7 5 7 0 9 5 6 10 -3 6
-2 10 4 10 5 0 12 -4 15 -9z m196 -6 c0 -2 -10 -9 -22 -15 -22 -11 -22 -10 -4
4 21 17 26 19 26 11z m-580 -2375 c-36 -4 -68 -5 -72 -1 -4 4 25 7 65 8 l72 1
-65 -8z m88 -17 c-21 -2 -57 -2 -80 0 -24 2 -7 4 37 4 44 0 63 -2 43 -4z m330
0 c-10 -2 -26 -2 -35 0 -10 3 -2 5 17 5 19 0 27 -2 18 -5z m-141 -9 c-3 -3
-12 -4 -19 -1 -8 3 -5 6 6 6 11 1 17 -2 13 -5z m-394 -11 c-7 -2 -19 -2 -25 0
-7 3 -2 5 12 5 14 0 19 -2 13 -5z m167 -3 c0 -5 -5 -10 -11 -10 -5 0 -7 5 -4
10 3 6 8 10 11 10 2 0 4 -4 4 -10z m113 3 c-7 -2 -19 -2 -25 0 -7 3 -2 5 12 5
14 0 19 -2 13 -5z m164 1 c-3 -3 -12 -4 -19 -1 -8 3 -5 6 6 6 11 1 17 -2 13
-5z m190 0 c-3 -3 -12 -4 -19 -1 -8 3 -5 6 6 6 11 1 17 -2 13 -5z m-507 -14
c0 -5 -5 -10 -11 -10 -5 0 -7 5 -4 10 3 6 8 10 11 10 2 0 4 -4 4 -10z m267 4
c-3 -3 -12 -4 -19 -1 -8 3 -5 6 6 6 11 1 17 -2 13 -5z m-114 -2751 c-7 -2 -19
-2 -25 0 -7 3 -2 5 12 5 14 0 19 -2 13 -5z m-206 -19 c-3 -3 -12 -4 -19 -1 -8
3 -5 6 6 6 11 1 17 -2 13 -5z m73 -4 c-34 -11 -60 -11 -35 0 11 5 29 8 40 8
16 0 15 -2 -5 -8z m103 3 c-7 -2 -21 -2 -30 0 -10 3 -4 5 12 5 17 0 24 -2 18
-5z"/>
<path d="M5802 7569 c-204 -36 -461 -264 -561 -498 -64 -149 -76 -200 -76
-326 0 -97 4 -133 22 -187 59 -178 152 -297 308 -391 190 -114 437 -128 675
-40 36 14 77 28 91 33 15 4 66 27 114 51 188 92 306 257 335 470 40 291 -162
677 -425 811 -116 59 -190 79 -315 83 -63 2 -139 0 -168 -6z m103 -477 c106
-54 157 -176 125 -294 -15 -53 -90 -131 -152 -158 -42 -18 -65 -21 -118 -18
-143 11 -233 102 -234 238 -1 116 73 212 194 251 41 14 142 3 185 -19z"/>
<path d="M6580 8990 c0 -5 5 -10 11 -10 5 0 7 5 4 10 -3 6 -8 10 -11 10 -2 0
-4 -4 -4 -10z"/>
<path d="M6813 8886 c-10 -11 -9 -15 4 -20 9 -4 18 -4 21 -1 3 3 0 5 -6 5 -6
0 -9 7 -6 15 7 18 3 19 -13 1z"/>
<path d="M1090 8761 c-31 -9 -274 -295 -369 -436 -112 -166 -440 -791 -484
-925 -30 -89 -57 -208 -57 -247 0 -22 5 -16 25 31 61 148 200 199 319 116 99
-68 138 -239 86 -375 -29 -76 -107 -141 -183 -151 -89 -13 -188 40 -227 121
-12 25 -24 45 -25 43 -7 -7 16 -157 36 -233 40 -154 131 -347 203 -432 70 -80
171 -104 276 -64 297 113 500 449 500 828 0 175 -43 317 -141 459 -108 157
-223 245 -366 279 -84 20 -140 15 -207 -19 -25 -13 -46 -20 -46 -16 0 3 36 42
80 85 90 89 204 172 300 219 60 29 72 31 170 31 71 -1 119 -6 148 -17 131 -49
283 -184 340 -301 50 -104 90 -238 103 -350 12 -108 7 -350 -12 -498 -23 -186
-104 -423 -203 -594 -25 -42 -77 -106 -131 -160 -181 -181 -359 -246 -491
-180 -27 13 -85 57 -129 97 -93 86 -91 81 21 -54 47 -57 107 -132 132 -168 46
-63 47 -66 46 -135 -1 -38 -5 -115 -9 -170 -8 -105 2 -215 31 -355 32 -149
127 -488 179 -635 29 -82 74 -211 100 -285 60 -174 155 -411 200 -500 72 -143
211 -330 329 -443 183 -176 334 -269 551 -342 353 -118 668 -165 1095 -165
467 1 879 49 1249 147 291 76 596 235 767 399 137 131 269 326 313 461 8 23
17 41 20 39 3 -2 6 6 7 17 0 12 11 58 23 101 62 222 54 464 -21 681 -12 33
-30 72 -40 87 -10 14 -18 29 -18 33 0 16 -119 125 -159 145 -45 22 -48 23
-141 41 -75 15 -266 5 -370 -19 -156 -36 -243 -71 -378 -154 -100 -61 -351
-188 -487 -246 -135 -57 -392 -142 -505 -166 -214 -46 -256 -49 -570 -49 -267
1 -318 4 -410 22 -411 82 -822 286 -1104 551 -203 189 -487 467 -529 518 -62
74 -101 138 -93 157 4 11 21 15 63 15 171 0 447 145 641 338 173 171 260 334
356 662 88 304 121 519 120 790 0 158 -4 213 -21 291 -60 275 -189 456 -483
679 -295 223 -405 329 -398 382 3 15 4 28 4 27 -1 -1 -12 -4 -26 -8z"/>
<path d="M6730 8130 c0 -5 5 -10 10 -10 6 0 10 5 10 10 0 6 -4 10 -10 10 -5 0
-10 -4 -10 -10z"/>
<path d="M6770 8125 c0 -8 2 -15 4 -15 2 0 6 7 10 15 3 8 1 15 -4 15 -6 0 -10
-7 -10 -15z"/>
<path d="M6881 8124 c0 -11 3 -14 6 -6 3 7 2 16 -1 19 -3 4 -6 -2 -5 -13z"/>
<path d="M6920 8129 c0 -5 10 -9 22 -9 12 0 18 3 14 7 -10 11 -36 12 -36 2z"/>
<path d="M6710 8101 c30 -11 56 -18 59 -16 5 6 -37 21 -79 29 -24 4 -17 0 20
-13z"/>
<path d="M6870 8046 l-35 -13 27 -6 c14 -4 34 -10 44 -14 12 -4 15 -3 10 5 -5
8 0 12 13 12 11 0 22 4 26 9 3 6 -7 6 -27 0 -50 -14 -69 -9 -23 6 22 7 31 13
20 13 -11 0 -36 -5 -55 -12z"/>
<path d="M6940 8010 c-9 -6 -10 -10 -3 -10 6 0 15 5 18 10 8 12 4 12 -15 0z"/>
<path d="M2486 6480 c-197 -50 -337 -156 -469 -354 -152 -227 -200 -564 -117
-831 87 -285 309 -520 581 -616 395 -140 786 -17 1027 323 105 148 150 289
159 489 9 205 -23 372 -99 524 -80 158 -270 333 -452 415 -102 46 -194 62
-381 66 -145 3 -181 1 -249 -16z"/>
<path d="M6478 5443 c6 -2 18 -2 25 0 6 3 1 5 -13 5 -14 0 -19 -2 -12 -5z"/>
<path d="M6618 5423 c7 -3 16 -2 19 1 4 3 -2 6 -13 5 -11 0 -14 -3 -6 -6z"/>
<path d="M6738 2683 c12 -2 32 -2 45 0 12 2 2 4 -23 4 -25 0 -35 -2 -22 -4z"/>
<path d="M6848 2673 c6 -2 18 -2 25 0 6 3 1 5 -13 5 -14 0 -19 -2 -12 -5z"/>
</g>
</svg>
